<?xml version="1.0" standalone="no"?>
<!DOCTYPE svg PUBLIC "-//W3C//DTD SVG 20010904//EN"
 "http://www.w3.org/TR/2001/REC-SVG-20010904/DTD/svg10.dtd">
<svg version="1.0" xmlns="http://www.w3.org/2000/svg"
 width="1039.000000pt" height="1039.000000pt" viewBox="0 0 1039.000000 1039.000000"
 preserveAspectRatio="xMidYMid meet">
<metadata>
Created by potrace 1.11, written by Peter Selinger 2001-2013
</metadata>
<g transform="translate(0.000000,1039.000000) scale(0.100000,-0.100000)"
fill="#000000" stroke="none">
<path d="M0 5190 l0 -3590 5195 0 5195 0 0 3590 0 3590 -5195 0 -5195 0 0
-3590z m9170 3224 c0 5 6 4 13 -2 13 -12 49 -10 80 3 11 4 23 3 29 -3 8 -8 15
-7 25 6 10 13 13 14 11 2 -2 -11 4 -14 22 -11 25 3 25 3 6 -17 -15 -17 -17
-30 -11 -74 4 -29 9 -87 10 -128 2 -75 10 -120 23 -120 16 1 42 28 42 44 0 10
5 14 10 11 6 -3 10 -2 10 4 0 5 -4 12 -9 15 -5 4 -8 50 -6 104 2 73 -1 101
-12 114 -10 11 -11 18 -4 23 6 3 11 -1 11 -11 0 -16 2 -16 20 1 25 23 103 28
95 6 -3 -8 0 -18 7 -22 10 -6 10 -11 1 -20 -7 -7 -8 -20 -3 -38 5 -14 11 -65
13 -113 4 -86 15 -118 43 -118 8 0 15 8 16 18 0 9 2 22 2 29 1 6 4 15 8 18 4
4 5 12 2 18 -8 24 -10 98 -2 103 5 3 6 10 3 15 -4 5 -3 15 2 22 12 19 14 47 3
47 -6 0 -10 5 -10 10 0 6 9 10 20 10 11 0 20 5 20 10 0 12 2 12 -38 1 -25 -8
-32 -7 -32 4 0 7 -3 21 -7 31 -5 14 -3 15 13 6 15 -8 23 -7 38 6 18 16 19 16
13 0 -6 -18 1 -22 36 -19 9 1 17 -4 17 -11 1 -8 8 -4 19 9 10 11 22 18 27 15
13 -10 18 -62 6 -62 -12 0 -22 -36 -13 -45 3 -4 7 -46 9 -93 5 -131 4 -128 35
-130 25 -2 27 0 27 38 0 23 5 50 10 60 6 12 6 21 1 25 -9 5 -6 73 4 103 2 6 1
12 -3 12 -4 0 -8 15 -9 34 -1 31 11 47 37 47 3 0 14 8 24 17 18 15 19 15 13 1
-5 -14 1 -16 38 -14 24 1 42 -2 39 -7 -8 -13 31 -9 44 4 9 9 12 8 12 -4 0 -19
-21 -29 -48 -21 -14 3 -26 -4 -41 -26 -18 -26 -20 -31 -7 -31 12 0 16 -11 16
-42 0 -32 -3 -39 -10 -28 -6 9 -10 10 -10 3 0 -6 4 -14 8 -17 13 -8 15 -106 2
-106 -6 0 -4 -10 5 -24 9 -13 12 -26 8 -28 -4 -3 -3 -3 4 -2 6 2 17 -4 24 -12
11 -13 15 -9 26 28 7 24 13 74 13 111 0 45 5 76 16 92 10 15 12 25 5 25 -14 0
-14 47 0 55 6 4 8 13 5 20 -4 11 4 13 32 6 2 -1 -4 -11 -12 -23 -21 -30 -20
-33 10 -35 25 -1 44 -17 44 -37 0 -6 -7 -1 -16 10 -14 18 -15 18 -8 -6 4 -14
11 -28 16 -31 6 -4 6 -9 -1 -13 -15 -10 -14 -26 2 -20 14 5 17 -52 4 -73 -4
-6 -1 -13 5 -16 10 -3 10 -7 -1 -20 -9 -11 -10 -17 -2 -17 13 0 15 -67 2 -72
-5 -1 -6 -23 -2 -48 4 -25 4 -58 1 -75 -3 -16 -2 -44 2 -61 5 -18 5 -42 0 -55
-9 -30 -9 -50 2 -67 4 -7 4 -18 -2 -25 -8 -12 -8 -129 2 -188 2 -18 0 -29 -7
-30 -8 0 -8 -2 -1 -5 6 -3 8 -25 3 -62 -3 -31 -4 -61 -1 -66 7 -12 8 -335 1
-331 -5 4 -3 -68 5 -137 1 -16 -1 -28 -4 -28 -4 0 -2 -18 4 -41 7 -27 7 -42 0
-47 -13 -9 -13 -235 1 -244 6 -5 5 -8 -3 -8 -9 0 -11 -7 -7 -19 3 -11 1 -22
-5 -26 -8 -5 -8 -10 0 -20 18 -22 12 -125 -8 -138 -11 -7 -11 -12 0 -24 13
-16 19 -223 7 -223 -4 0 -7 -16 -7 -35 0 -19 3 -35 7 -35 3 0 6 -38 7 -85 0
-46 -3 -82 -7 -79 -4 2 -4 -9 1 -24 4 -16 4 -35 -1 -43 -4 -8 -4 -16 2 -19 5
-4 5 -35 -1 -84 -5 -43 -8 -88 -5 -100 10 -41 12 -147 3 -152 -12 -7 1 -67 16
-76 6 -5 0 -8 -14 -8 -18 0 -21 -3 -11 -9 8 -5 11 -16 8 -25 -4 -9 -2 -16 4
-16 7 0 8 -15 4 -42 -4 -22 -8 -76 -9 -120 0 -43 -4 -78 -8 -78 -8 0 -5 -16
11 -55 8 -19 9 -37 3 -50 -5 -11 -8 -43 -7 -72 0 -28 -2 -50 -7 -47 -4 3 -9
-3 -9 -13 -2 -31 2 -45 17 -60 16 -17 19 -27 4 -18 -5 3 -10 1 -10 -5 0 -6 -6
-8 -12 -4 -7 4 -2 -4 11 -16 15 -15 20 -25 13 -28 -15 -5 -16 -42 -2 -42 6 0
10 -8 10 -17 0 -15 -2 -16 -10 -3 -8 13 -10 12 -11 -5 -1 -11 -1 -27 0 -35 8
-50 8 -107 0 -122 -6 -11 -5 -19 2 -24 8 -4 8 -9 0 -17 -14 -14 -14 -94 -1
-102 6 -4 8 -10 5 -14 -2 -5 0 -23 5 -40 8 -28 7 -32 -7 -27 -12 5 -14 2 -9
-16 11 -34 14 -111 4 -96 -5 9 -8 6 -8 -9 0 -13 5 -23 10 -23 6 0 10 -7 10
-15 0 -8 -5 -15 -10 -15 -10 0 -5 -85 6 -102 3 -5 2 -14 -4 -21 -14 -19 -23
-49 -12 -42 6 3 10 -3 10 -14 0 -10 3 -27 7 -37 4 -11 2 -15 -4 -11 -7 4 -7
-10 -1 -45 7 -36 6 -53 -2 -58 -6 -4 -9 -17 -5 -32 4 -14 2 -29 -3 -32 -12 -7
-3 -46 10 -46 6 0 6 -6 -1 -14 -8 -9 -9 -27 -3 -52 10 -47 5 -77 -11 -67 -7 4
-7 0 1 -10 14 -17 8 -55 -12 -70 -7 -6 -4 -7 7 -3 12 4 17 0 17 -13 0 -31 -11
-51 -24 -44 -6 3 -3 -3 7 -14 18 -20 24 -59 8 -49 -10 6 -9 -12 0 -29 9 -16 5
-148 -5 -164 -6 -10 -5 -12 2 -7 16 9 15 -7 0 -22 -9 -9 -9 -12 0 -12 7 0 12
-9 12 -20 0 -11 -3 -20 -7 -20 -5 0 -13 -11 -19 -24 -10 -21 -9 -24 6 -21 13
2 18 -3 18 -21 0 -13 -6 -24 -12 -24 -6 0 -5 -4 3 -9 10 -7 11 -13 2 -30 -9
-15 -9 -27 -1 -42 12 -21 11 -67 -2 -84 -4 -6 -2 -17 4 -25 8 -12 8 -11 3 5
-4 13 -3 17 4 10 6 -6 6 -28 0 -60 -5 -27 -10 -72 -11 -98 0 -27 -4 -44 -8
-37 -5 8 -9 7 -13 -4 -4 -9 -2 -16 3 -16 6 0 10 -7 10 -15 0 -8 -5 -15 -12
-15 -6 0 -4 -6 7 -13 12 -10 14 -16 7 -21 -14 -9 -16 -46 -3 -46 5 0 12 8 14
18 3 10 5 6 6 -10 0 -16 -3 -28 -8 -28 -5 0 -8 -11 -6 -25 1 -15 -4 -29 -13
-34 -8 -5 -12 -14 -8 -20 4 -6 11 -9 15 -6 5 2 6 -8 4 -23 -4 -22 -2 -24 7
-12 10 13 11 12 6 -3 -3 -10 -6 -34 -6 -53 0 -20 -4 -33 -8 -30 -7 4 -8 -11
-2 -49 1 -5 5 -1 10 10 6 15 8 12 6 -15 -1 -19 -4 -39 -8 -45 -3 -5 -4 -22 -2
-37 2 -19 -2 -28 -12 -28 -12 0 -11 -5 3 -27 11 -16 13 -28 7 -30 -6 -2 -8
-17 -6 -35 3 -23 1 -29 -9 -26 -8 3 -19 -1 -26 -8 -8 -8 -25 -10 -45 -6 -18 3
-45 6 -60 5 -16 0 -28 4 -28 8 0 5 -5 9 -11 9 -5 0 -7 -4 -4 -10 3 -6 -1 -7
-9 -4 -9 3 -16 2 -16 -3 0 -5 -14 -10 -31 -11 -17 -1 -28 2 -25 6 3 5 -8 9
-24 8 -17 -1 -30 -4 -30 -8 0 -4 -12 -4 -27 -2 -41 8 -56 8 -75 -1 -11 -4 -18
-3 -18 4 0 8 -5 9 -19 1 -13 -6 -28 -7 -44 -1 -13 5 -29 6 -35 2 -13 -8 -70
-7 -132 3 -33 6 -41 5 -30 -3 12 -8 7 -11 -21 -11 -20 0 -39 3 -42 7 -10 9
-138 9 -144 0 -6 -10 -46 2 -55 16 -3 5 -4 73 -1 151 2 78 6 196 7 263 1 68 5
126 9 129 4 4 3 12 -1 18 -4 6 -8 49 -9 96 -4 143 -6 323 -4 360 0 19 -1 55
-2 79 -2 25 -1 60 3 78 5 19 4 31 -1 27 -10 -6 -4 60 7 78 4 6 3 8 -3 5 -7 -4
-10 3 -9 17 0 13 4 22 8 20 4 -3 7 26 6 63 -1 37 0 106 2 152 2 63 -1 85 -11
92 -9 6 -10 12 -4 17 6 4 10 95 10 237 0 127 4 291 8 365 6 94 5 136 -2 138
-6 2 -11 8 -11 13 0 6 5 7 11 3 7 -4 7 2 -1 17 -8 14 -12 60 -11 123 3 242 9
434 16 479 5 33 4 47 -4 47 -8 0 -10 11 -6 33 7 38 7 36 0 192 -2 66 -4 152
-3 190 0 39 2 117 3 175 1 62 -3 111 -9 119 -7 10 -8 13 -1 9 7 -5 11 24 12
83 1 66 -1 87 -10 82 -9 -5 -9 -3 -1 8 6 8 9 41 8 74 -2 33 -3 65 -3 70 0 6 2
280 4 610 4 548 5 778 4 829 0 11 5 22 12 26 6 4 8 13 5 19 -4 6 -10 84 -13
174 -6 191 -6 170 0 277 2 47 0 93 -5 102 -4 9 -5 19 0 21 4 3 8 58 10 123 2
74 7 123 15 133 9 12 9 13 0 7 -7 -4 -13 -3 -13 3 0 5 5 13 11 16 6 4 8 13 5
21 -3 7 0 16 6 20 7 5 8 2 3 -6 -6 -9 -4 -11 4 -5 9 5 10 10 2 18 -6 6 -11 16
-11 22 0 5 5 3 10 -5 5 -8 10 -11 10 -6z m270 6 c0 -5 -5 -10 -11 -10 -5 0 -7
5 -4 10 3 6 8 10 11 10 2 0 4 -4 4 -10z m341 -17 c0 -25 1 -26 9 -8 8 19 9 19
9 -2 1 -21 -28 -35 -30 -15 0 4 -2 17 -5 30 -2 12 1 22 6 22 6 0 10 -12 11
-27z m-61 7 c0 -5 -5 -10 -11 -10 -5 0 -7 5 -4 10 3 6 8 10 11 10 2 0 4 -4 4
-10z m370 -35 c0 -8 -4 -15 -10 -15 -5 0 -7 7 -4 15 4 8 8 15 10 15 2 0 4 -7
4 -15z m-6753 -381 c-3 -3 -12 -4 -19 -1 -8 3 -5 6 6 6 11 1 17 -2 13 -5z
m-1497 -44 c-11 -7 -5 -10 25 -10 31 0 37 -3 25 -11 -11 -8 -9 -9 10 -3 14 4
28 12 32 18 6 8 8 8 8 0 0 -7 7 -15 16 -18 11 -4 15 -2 11 8 -4 11 5 13 46 9
29 -3 58 -5 65 -5 6 -1 12 -5 12 -10 0 -4 5 -8 11 -8 5 0 7 5 4 10 -3 6 -1 10
4 10 6 0 11 -4 11 -10 0 -5 7 -7 15 -4 8 4 13 10 10 14 -3 4 6 10 20 12 13 3
23 1 22 -5 -1 -6 9 -11 23 -11 14 -1 25 -7 26 -13 1 -7 2 -20 3 -28 2 -24 18
-17 23 10 3 14 1 25 -5 25 -6 0 -8 2 -5 5 9 9 58 -14 58 -27 0 -9 -3 -8 -10 2
-9 13 -10 13 -10 0 0 -9 -10 -24 -21 -34 -18 -15 -23 -16 -30 -5 -8 11 -11 10
-20 -4 -8 -14 -14 -15 -24 -7 -7 6 -16 7 -18 3 -7 -11 -88 -10 -105 1 -7 4
-20 5 -28 2 -8 -3 -26 -1 -39 4 -20 8 -27 6 -32 -6 -4 -11 -14 -14 -34 -10
-18 3 -29 1 -33 -9 -3 -8 -10 -15 -16 -15 -6 0 -8 4 -5 10 3 6 -1 7 -9 4 -9
-3 -16 -10 -16 -15 0 -5 -6 -9 -14 -9 -8 0 -17 -7 -20 -16 -4 -11 -10 -13 -19
-7 -26 21 -57 22 -67 2 -6 -10 -17 -16 -25 -13 -21 8 -42 -16 -37 -45 2 -14
-1 -37 -7 -51 -10 -22 -11 -20 -8 20 1 25 -1 46 -5 48 -24 7 -38 0 -38 -20 0
-18 2 -20 9 -9 8 12 11 9 17 -12 7 -30 -2 -49 -14 -30 -5 8 -13 7 -27 -4 -17
-13 -17 -15 -2 -9 11 3 16 2 12 -4 -3 -6 -15 -10 -25 -10 -12 0 -20 -8 -22
-22 -2 -16 -9 -22 -22 -20 -14 3 -17 -1 -13 -12 4 -9 3 -16 -1 -16 -12 -1 -94
-80 -83 -80 8 0 8 -7 -1 -22 -7 -13 -13 -27 -14 -33 0 -5 -5 -21 -11 -35 -21
-52 -55 -146 -58 -160 -2 -8 -10 -45 -19 -81 -24 -102 -33 -167 -41 -272 -2
-23 -6 -58 -9 -78 -12 -68 -17 -114 -21 -224 -2 -60 -7 -146 -10 -190 -5 -80
-11 -177 -19 -355 -3 -53 -7 -102 -10 -110 -3 -8 -8 -76 -11 -150 -3 -74 -8
-198 -12 -275 -14 -315 -8 -778 12 -1000 2 -27 7 -122 11 -210 3 -88 7 -173 9
-190 1 -16 8 -77 14 -135 6 -58 18 -184 26 -280 18 -216 64 -449 105 -535 35
-73 120 -157 188 -186 195 -84 709 -145 1502 -179 135 -6 317 -15 405 -20 646
-37 1693 -46 2210 -19 168 9 196 12 215 24 9 6 11 4 5 -5 -6 -9 4 -11 41 -7
27 3 184 8 349 11 165 3 350 11 410 17 61 6 118 11 127 11 10 -1 20 4 24 9 4
6 11 6 20 -2 7 -6 21 -9 29 -5 9 3 65 10 125 16 150 14 314 44 380 69 158 60
211 130 278 376 36 132 43 190 48 405 3 91 6 181 9 200 13 107 16 126 20 138
2 6 -1 12 -8 12 -7 0 -8 3 -2 8 6 4 11 34 13 67 6 152 10 214 16 265 3 30 8
109 11 175 2 66 7 131 10 145 12 54 14 230 2 230 -7 0 -6 4 3 10 8 5 10 10 5
10 -11 0 -12 83 -2 133 4 17 1 27 -6 27 -8 0 -9 2 -1 8 6 4 10 22 9 40 -1 18
2 35 7 38 13 8 6 144 -7 144 -5 0 -3 5 5 10 13 9 13 10 0 10 -13 0 -13 1 0 10
13 9 13 10 0 10 -13 0 -13 2 -1 9 8 5 12 18 8 30 -3 12 -1 21 4 21 4 0 6 6 4
13 -11 34 -12 77 -2 77 8 0 7 4 -2 9 -8 5 -12 18 -8 30 3 12 0 21 -6 21 -7 0
-5 5 3 10 13 9 13 10 0 10 -13 0 -13 1 0 10 11 7 11 10 2 10 -8 0 -10 5 -5 13
12 20 12 37 0 38 -7 0 -3 4 8 9 15 6 16 9 4 9 -12 1 -15 10 -14 36 2 21 -2 35
-9 35 -6 0 -4 5 4 10 13 9 13 10 0 10 -9 0 -11 3 -5 8 11 8 16 62 5 62 -3 0
-6 20 -5 45 1 25 -1 45 -4 45 -3 0 -7 42 -7 93 -1 50 -5 112 -8 137 -3 25 -8
86 -11 135 -3 50 -7 110 -11 135 -3 25 -7 87 -7 138 -1 50 -4 92 -7 92 -3 0
-7 12 -7 28 -9 142 -12 181 -17 208 -3 17 -8 56 -11 86 -3 30 -8 66 -11 79 -8
38 -12 61 -18 100 -7 45 -16 69 -26 69 -5 0 -7 8 -6 17 2 10 -9 38 -23 63 -14
25 -35 62 -45 83 -11 20 -23 37 -27 37 -5 0 -6 6 -3 14 6 16 -45 66 -104 102
-20 13 -30 24 -22 24 27 1 -22 24 -57 27 -23 1 -33 -3 -36 -15 -3 -12 -5 -11
-6 5 -1 27 -19 40 -27 19 -7 -19 -18 -20 -36 -3 -19 19 -46 27 -65 19 -14 -5
-12 -8 12 -13 24 -6 21 -7 -18 -6 -26 0 -50 4 -53 8 -8 13 50 47 86 51 l34 3
-38 20 -37 20 -20 -25 -21 -25 5 28 c5 35 -6 35 -22 0 -10 -21 -14 -24 -21
-13 -6 10 -4 23 5 36 18 28 8 38 -18 19 -14 -10 -26 -11 -38 -4 -11 6 -20 6
-24 -1 -6 -9 13 -50 29 -62 5 -3 -2 -5 -17 -5 -14 1 -23 5 -21 8 2 4 -10 12
-26 19 -25 10 -29 17 -24 36 5 18 2 24 -10 24 -9 0 -16 -5 -16 -10 0 -7 -8 -6
-22 2 -31 17 -110 18 -104 1 6 -16 -8 -17 -35 -3 -16 9 -19 7 -19 -10 0 -11 3
-19 8 -18 14 4 53 -23 46 -33 -3 -6 5 -7 22 -3 19 5 25 4 20 -5 -10 -16 -52
-14 -70 5 -9 8 -16 12 -16 7 0 -4 -5 -1 -10 7 -9 13 -12 13 -24 -2 -16 -22
-30 -24 -23 -4 3 8 0 19 -7 25 -18 15 -17 61 0 61 21 0 17 18 -6 30 -16 9 -18
8 -14 -5 4 -9 3 -15 -2 -14 -32 6 -64 -3 -64 -17 0 -8 -4 -13 -9 -9 -14 8 -24
-13 -16 -33 5 -14 7 -14 16 -2 9 13 10 13 7 1 -7 -26 -27 -23 -34 4 -5 19 -10
23 -19 15 -6 -5 -15 -6 -19 -2 -4 4 -15 -2 -23 -13 -9 -12 -14 -14 -11 -5 2 8
19 21 36 29 36 17 37 30 3 43 -20 7 -22 6 -12 -6 7 -8 8 -17 3 -20 -6 -3 -12
1 -16 9 -3 9 -18 15 -36 15 -25 0 -30 4 -30 25 0 18 -4 23 -15 19 -8 -4 -21
-1 -29 5 -16 13 -46 4 -46 -14 0 -7 7 -16 16 -19 13 -5 14 -9 4 -21 -6 -8 -9
-19 -5 -26 4 -6 3 -14 -3 -18 -7 -4 -5 -13 5 -26 10 -13 14 -14 10 -4 -3 9 -1
22 4 30 6 10 9 10 9 2 0 -7 7 -13 15 -13 18 0 20 17 3 23 -26 9 5 21 49 18 19
-1 20 -4 10 -36 -6 -20 -19 -38 -31 -42 -29 -10 -97 -10 -102 -1 -3 5 -24 8
-47 9 -36 1 -38 2 -17 9 21 7 22 8 5 10 -17 2 -16 3 5 10 15 5 18 8 9 9 -9 1
-19 8 -23 16 -4 13 -2 13 14 5 10 -5 31 -10 47 -9 l28 0 -25 11 c-25 11 -25
11 -2 15 12 3 22 11 22 20 0 12 -6 13 -22 8 -26 -9 -85 -11 -93 -3 -3 2 -8 26
-12 53 -5 41 -4 47 9 42 9 -3 20 -1 26 5 6 6 14 5 23 -4 11 -12 21 -12 63 -1
57 15 134 17 154 4 7 -4 42 -2 77 4 35 7 69 9 76 4 7 -4 18 -4 24 1 7 6 25 6
46 0 43 -13 58 -12 39 0 -24 16 45 12 130 -7 41 -9 93 -15 115 -13 43 3 94 4
165 2 101 -4 206 0 215 8 6 4 42 6 80 4 39 -3 120 -5 182 -5 69 0 115 -4 119
-10 5 -8 8 -8 13 0 5 8 17 8 42 0 48 -16 123 -18 131 -5 5 7 8 7 8 -2 0 -10
12 -13 43 -10 37 2 42 0 45 -20 2 -12 10 -22 17 -22 8 0 16 -8 19 -17 5 -15 7
-95 5 -153 0 -8 0 -58 1 -110 1 -52 -1 -119 -3 -147 -2 -29 1 -53 5 -53 5 0 6
-6 1 -12 -12 -20 -14 -228 -3 -228 6 0 8 -10 5 -22 -10 -49 -15 -203 -5 -188
13 20 13 8 -1 -27 -7 -16 -10 -72 -8 -133 3 -98 1 -1133 -2 -1155 0 -5 0 -23
0 -40 1 -16 2 -97 2 -180 0 -82 1 -209 2 -282 1 -72 -1 -126 -5 -120 -5 7 -8
3 -8 -10 0 -13 3 -23 8 -23 9 0 8 -187 -1 -196 -4 -4 -2 -13 4 -20 7 -9 7 -24
0 -51 -7 -24 -7 -41 -1 -47 13 -13 13 -29 0 -21 -5 3 -10 -3 -10 -15 0 -12 4
-18 10 -15 7 4 7 -3 0 -19 -10 -28 -6 -138 6 -171 7 -18 6 -19 -11 -5 -16 13
-18 13 -10 0 5 -8 8 -27 7 -43 -2 -20 1 -27 10 -22 7 4 6 1 -2 -7 -12 -10 -15
-38 -14 -138 1 -69 5 -136 9 -149 5 -14 4 -22 -1 -19 -5 4 -9 -208 -8 -520 0
-385 -3 -537 -12 -564 -6 -21 -8 -36 -4 -33 14 8 18 -32 9 -82 -5 -26 -7 -59
-4 -71 3 -13 0 -31 -6 -39 -8 -9 -9 -17 -3 -21 16 -11 11 -277 -4 -277 -7 0
-12 -4 -11 -9 1 -15 -25 -25 -49 -19 -12 3 -29 0 -36 -6 -11 -9 -15 -9 -19 1
-4 10 -8 10 -16 -2 -9 -12 -12 -13 -20 -1 -5 8 -11 9 -15 3 -4 -8 -16 -8 -36
0 -16 5 -35 8 -42 5 -8 -3 -5 -6 7 -8 11 -1 -2 -5 -30 -8 -28 -4 -72 -1 -100
6 -31 8 -51 9 -53 3 -5 -15 -42 -12 -43 3 0 9 -2 9 -6 0 -2 -7 -9 -13 -14 -13
-6 0 -8 4 -5 8 6 10 -108 8 -146 -3 -19 -5 -28 -3 -28 4 0 13 -39 14 -60 1 -9
-5 -19 -5 -27 2 -8 6 -16 8 -20 5 -3 -4 -12 -2 -20 5 -11 8 -17 8 -26 -2 -9
-9 -9 -11 0 -6 6 3 14 3 17 -2 9 -15 -28 -9 -43 6 -9 8 -17 10 -18 5 -2 -5
-18 -7 -35 -5 -21 3 -29 1 -24 -7 5 -7 -2 -10 -18 -9 -30 3 -34 14 -8 21 9 3
-46 6 -123 7 -77 1 -144 1 -150 -1 -5 -1 -30 -3 -55 -4 -25 -1 -53 -5 -62 -9
-10 -4 -23 -6 -30 -3 -8 4 -6 6 5 6 9 1 17 6 17 12 0 6 -7 8 -16 5 -16 -6
-203 -8 -262 -3 -19 2 -45 -3 -59 -10 -14 -7 -28 -11 -31 -8 -3 3 0 5 6 5 7 0
12 4 12 8 0 4 -16 8 -35 8 -25 0 -34 -4 -31 -13 3 -7 1 -13 -4 -13 -6 0 -10 4
-10 9 0 5 -20 8 -44 7 -24 0 -42 -5 -39 -10 3 -5 0 -6 -8 -4 -8 3 -13 10 -12
15 1 6 -28 11 -70 12 -50 1 -67 -2 -57 -9 12 -8 11 -10 -8 -10 -13 0 -20 4
-17 10 3 6 -3 10 -14 10 -12 0 -21 -4 -21 -10 0 -5 -7 -10 -16 -10 -8 0 -12 5
-9 10 9 14 -38 13 -53 -2 -8 -8 -15 -8 -26 1 -15 13 -49 12 -134 -3 -18 -3
-31 -2 -28 2 3 5 -21 9 -52 9 -42 1 -52 -2 -37 -8 19 -9 -11 -6 -84 8 -13 2
-28 -2 -32 -9 -7 -10 -9 -10 -9 0 0 14 -27 16 -32 2 -2 -6 -17 -6 -43 1 -29 8
-40 8 -43 0 -2 -6 -20 -11 -40 -11 -24 0 -32 3 -24 9 10 6 9 10 -7 14 -12 3
-19 1 -16 -3 6 -9 -23 -8 -65 3 -14 4 -223 8 -465 11 -367 3 -443 2 -456 -10
-13 -12 -20 -12 -47 1 -29 15 -68 15 -93 -1 -8 -4 -9 -3 -5 4 8 13 -23 15 -64
3 -14 -4 -33 -3 -44 3 -14 8 -20 8 -23 -1 -3 -7 -9 -13 -14 -13 -6 0 -7 5 -4
10 6 10 -26 11 -355 11 -179 0 -200 -1 -200 -10 0 -4 -28 -8 -62 -9 -74 -4
-72 7 4 18 l53 8 -56 1 c-30 0 -60 -4 -67 -11 -8 -8 -15 -8 -24 0 -18 14 -478
16 -478 1 0 -6 -4 -8 -10 -4 -20 12 -104 17 -331 19 -186 1 -235 -2 -232 -11
3 -7 -2 -13 -11 -13 -9 0 -16 5 -16 10 0 6 -9 10 -21 10 -13 0 -18 -4 -13 -12
4 -7 3 -8 -5 -4 -6 4 -9 12 -6 17 4 5 -23 9 -64 9 -46 0 -71 -4 -75 -12 -5
-10 -7 -10 -12 1 -5 11 -8 11 -14 0 -7 -10 -12 -10 -23 0 -14 11 -35 10 -77
-1 -8 -3 -12 -3 -7 -1 4 3 7 9 7 14 0 10 -50 7 -69 -5 -6 -4 -23 -5 -37 -2
-13 4 -24 2 -24 -3 0 -12 -128 -2 -162 13 -9 4 -58 5 -110 3 -118 -7 -106 -6
-153 -5 -22 0 -74 -2 -115 -5 -52 -4 -77 -2 -82 6 -6 9 -8 9 -8 0 0 -9 -16
-13 -45 -13 -25 0 -45 3 -45 8 0 4 -60 7 -132 6 -73 0 -122 1 -108 3 l25 4 2
139 c1 77 -3 142 -8 146 -5 3 -9 12 -9 20 0 8 4 13 8 10 5 -3 8 42 7 100 -1
58 1 107 5 109 3 2 3 37 0 77 -5 60 -6 1348 -1 2323 0 121 0 227 0 235 0 8 0
69 0 135 0 66 1 201 1 300 0 99 1 228 3 288 1 59 -2 107 -6 107 -5 0 -5 10 -1
22 9 29 7 435 -2 450 -4 6 -3 9 2 6 5 -4 10 119 12 295 2 166 4 343 5 392 0
50 0 113 -1 140 -3 73 -1 95 8 95 14 0 22 53 9 60 -6 4 -8 13 -5 19 4 6 13 8
19 4 7 -4 5 1 -2 11 -14 17 -12 18 27 15 22 -2 44 0 48 3 3 4 16 3 28 -1 11
-5 66 -7 121 -6 57 2 105 -1 113 -7 8 -7 12 -6 12 3 0 11 2 11 10 -1 9 -13 12
-13 23 1 17 23 31 21 40 -4 6 -15 10 -18 16 -9 4 8 15 10 26 6 12 -5 16 -4 12
4 -5 7 27 10 109 9 64 -1 118 1 121 6 7 11 41 8 45 -5 3 -7 9 -8 18 -3 7 4 35
9 61 9 26 1 51 5 55 9 4 4 12 7 18 7 6 0 4 -5 -4 -10z m684 -25 c-7 -16 -24
-21 -24 -6 0 5 -8 12 -17 14 -10 3 -4 5 14 6 25 1 31 -2 27 -14z m76 5 c0 -5
-7 -7 -15 -4 -8 4 -15 8 -15 10 0 2 7 4 15 4 8 0 15 -4 15 -10z m475 -19 c-6
-5 -25 10 -25 20 0 5 6 4 14 -3 8 -7 12 -15 11 -17z m1450 19 c3 -6 -1 -7 -9
-4 -18 7 -21 14 -7 14 6 0 13 -4 16 -10z m-1520 -10 c3 -5 2 -10 -4 -10 -5 0
-13 5 -16 10 -3 6 -2 10 4 10 5 0 13 -4 16 -10z m1626 -12 c-10 -27 -34 -30
-39 -6 -2 11 5 18 20 21 13 2 24 5 25 6 1 0 -1 -9 -6 -21z m201 -3 c-2 -14 -6
-25 -8 -25 -2 0 -4 11 -4 25 0 14 4 25 9 25 4 0 6 -11 3 -25z m948 0 c0 -8 -4
-15 -10 -15 -5 0 -10 7 -10 15 0 8 5 15 10 15 6 0 10 -7 10 -15z m130 0 c0
-17 -12 -19 -26 -5 -8 8 -19 8 -38 0 -15 -5 -25 -6 -21 -1 3 5 -3 12 -12 14
-10 3 8 5 40 6 44 1 57 -2 57 -14z m174 8 c11 -12 40 -12 53 -1 7 6 13 8 13 5
0 -3 3 -13 7 -23 4 -11 3 -15 -4 -11 -6 4 -14 1 -16 -5 -4 -10 -8 -9 -16 2
-10 13 -12 13 -20 0 -6 -8 -11 -12 -13 -10 -2 3 -12 15 -22 28 -15 18 -16 22
-4 22 8 0 18 -3 22 -7z m2649 -8 c37 -8 74 -20 82 -27 32 -29 45 -38 52 -38 8
0 61 -71 78 -105 6 -11 10 -38 10 -60 0 -35 -4 -41 -32 -55 -18 -8 -32 -19
-32 -25 -1 -13 -92 -22 -213 -20 -53 1 -95 -2 -92 -7 5 -8 -15 -12 -55 -8 -16
1 -21 -2 -16 -11 6 -9 1 -10 -19 -5 -17 4 -26 2 -26 -6 0 -6 -11 -1 -24 11
-18 17 -25 19 -30 9 -3 -7 -4 -4 -3 7 2 11 -3 25 -11 30 -7 6 -15 31 -17 55
-3 40 0 48 36 84 21 23 39 47 39 54 0 16 14 34 58 76 29 27 61 39 142 55 3 0
35 -6 73 -14z m-3049 -10 c3 -8 1 -15 -4 -15 -6 0 -10 7 -10 15 0 8 2 15 4 15
2 0 6 -7 10 -15z m-2584 -5 c0 -5 -4 -10 -10 -10 -5 0 -10 5 -10 10 0 6 5 10
10 10 6 0 10 -4 10 -10z m1697 -12 c-3 -8 -6 -5 -6 6 -1 11 2 17 5 13 3 -3 4
-12 1 -19z m183 12 c0 -5 -2 -10 -4 -10 -3 0 -8 5 -11 10 -3 6 -1 10 4 10 6 0
11 -4 11 -10z m774 -5 c4 -11 -2 -15 -24 -15 -29 0 -38 9 -23 23 12 12 41 7
47 -8z m49 -5 c-3 -11 -7 -20 -9 -20 -2 0 -4 9 -4 20 0 11 4 20 9 20 5 0 7 -9
4 -20z m421 -2 c-8 -29 -10 -31 -23 -23 -8 4 -8 12 -1 26 15 27 33 24 24 -3z
m-3892 -3 c0 -5 -5 -11 -11 -13 -6 -2 -11 4 -11 13 0 9 5 15 11 13 6 -2 11 -8
11 -13z m135 9 c-3 -3 -12 -4 -19 -1 -8 3 -5 6 6 6 11 1 17 -2 13 -5z m288 -4
c3 -5 1 -10 -4 -10 -6 0 -11 5 -11 10 0 6 2 10 4 10 3 0 8 -4 11 -10z m2885 0
c0 -5 -4 -10 -10 -10 -5 0 -10 5 -10 10 0 6 5 10 10 10 6 0 10 -4 10 -10z
m310 -5 c0 -8 -4 -15 -10 -15 -5 0 -10 7 -10 15 0 8 5 15 10 15 6 0 10 -7 10
-15z m29 -14 c-15 -5 -22 6 -14 19 6 9 10 9 16 -1 5 -8 4 -15 -2 -18z m-3109
9 c0 -5 -2 -10 -4 -10 -3 0 -8 5 -11 10 -3 6 -1 10 4 10 6 0 11 -4 11 -10z
m1599 -11 c-16 -10 -23 -4 -14 10 3 6 11 8 17 5 6 -4 5 -9 -3 -15z m-1069 1
c0 -5 -4 -10 -10 -10 -5 0 -10 5 -10 10 0 6 5 10 10 10 6 0 10 -4 10 -10z
m597 -12 c-3 -8 -6 -5 -6 6 -1 11 2 17 5 13 3 -3 4 -12 1 -19z m2181 -5 c-3
-30 -34 -41 -34 -13 0 10 4 16 8 14 4 -3 8 2 8 10 0 9 5 16 11 16 6 0 9 -12 7
-27z m52 -13 c-7 -5 -10 -15 -7 -23 3 -9 -1 -21 -9 -27 -11 -10 -14 -9 -14 8
0 11 -3 27 -6 36 -4 12 0 16 15 16 13 0 21 7 22 18 1 15 2 15 6 -2 3 -10 -1
-22 -7 -26z m-815 10 c-3 -4 1 -10 7 -13 7 -2 10 -7 7 -11 -4 -4 -13 0 -22 8
-8 8 -23 12 -36 9 -11 -3 -21 -1 -21 5 0 6 12 12 28 14 31 4 44 0 37 -12z
m-2547 -15 c-24 -12 -38 -10 -38 5 0 10 30 18 48 12 9 -3 5 -9 -10 -17z m701
16 c7 -5 12 -13 10 -18 -2 -5 -12 -1 -21 9 -19 19 -13 24 11 9z m1487 -17 c2
-29 2 -29 -24 -1 l-21 22 22 1 c16 1 22 -4 23 -22z m198 6 c16 0 17 -3 8 -12
-10 -10 -17 -7 -32 10 -11 12 -15 17 -8 12 7 -6 21 -10 32 -10z m256 8 c0 -7
-11 -13 -25 -13 -31 0 -33 12 -2 18 12 2 23 5 25 6 1 0 2 -5 2 -11z m440 -14
c0 -14 -4 -23 -9 -20 -5 3 -7 15 -4 26 7 28 13 25 13 -6z m-3890 -3 c13 -26
13 -41 -1 -41 -7 0 -17 -7 -24 -17 -7 -9 -17 -13 -24 -9 -8 6 -4 15 15 33 26
24 26 24 5 30 -26 7 -28 23 -1 23 10 0 24 -9 30 -19z m70 9 c0 -5 -4 -10 -9
-10 -6 0 -13 5 -16 10 -3 6 1 10 9 10 9 0 16 -4 16 -10z m1517 4 c-3 -3 -12
-4 -19 -1 -8 3 -5 6 6 6 11 1 17 -2 13 -5z m870 -41 c-3 -10 -5 -2 -5 17 0 19
2 27 5 18 2 -10 2 -26 0 -35z m230 0 c-3 -10 -5 -4 -5 12 0 17 2 24 5 18 2 -7
2 -21 0 -30z m878 27 c3 -5 1 -10 -4 -10 -6 0 -11 5 -11 10 0 6 2 10 4 10 3 0
8 -4 11 -10z m-2735 -9 c0 -6 -4 -13 -10 -16 -5 -3 -10 1 -10 9 0 9 5 16 10
16 6 0 10 -4 10 -9z m60 -1 c0 -5 -5 -10 -11 -10 -5 0 -7 5 -4 10 3 6 8 10 11
10 2 0 4 -4 4 -10z m-530 -16 c0 -8 -4 -12 -10 -9 -5 3 -10 10 -10 16 0 5 5 9
10 9 6 0 10 -7 10 -16z m623 -8 c-4 -18 -10 -22 -25 -18 -19 5 -19 6 -5 17 9
7 14 15 10 18 -3 4 1 7 9 7 11 0 14 -7 11 -24z m2467 9 c0 -8 -4 -15 -9 -15
-13 0 -22 16 -14 24 11 11 23 6 23 -9z m160 0 c0 -8 -7 -15 -15 -15 -13 0 -14
3 -3 15 16 18 18 18 18 0z m-1133 -27 c-3 -7 -5 -2 -5 12 0 14 2 19 5 13 2 -7
2 -19 0 -25z m123 12 c0 -11 -7 -20 -15 -20 -17 0 -18 2 -9 24 9 23 24 20 24
-4z m117 -2 c-3 -8 -6 -5 -6 6 -1 11 2 17 5 13 3 -3 4 -12 1 -19z m-2610 -8
c-1 -11 -7 -20 -13 -20 -7 0 -10 8 -7 20 3 11 9 20 14 20 4 0 7 -9 6 -20z
m1828 10 c3 -5 1 -10 -4 -10 -6 0 -11 5 -11 10 0 6 2 10 4 10 3 0 8 -4 11 -10z
m1179 -11 c15 -12 30 -19 33 -15 4 3 1 6 -5 6 -7 0 -12 5 -12 11 0 8 5 8 15
-1 20 -17 10 -30 -23 -30 -47 0 -72 11 -72 31 0 26 30 24 64 -2z m200 -12
c-18 -10 -40 6 -30 22 5 7 13 7 26 -1 17 -11 18 -14 4 -21z m206 29 c0 -3 -4
-8 -10 -11 -5 -3 -10 -1 -10 4 0 6 5 11 10 11 6 0 10 -2 10 -4z m526 -23 c-10
-10 -19 5 -10 18 6 11 8 11 12 0 2 -7 1 -15 -2 -18z m-3556 7 c0 -5 -5 -10
-11 -10 -5 0 -7 5 -4 10 3 6 8 10 11 10 2 0 4 -4 4 -10z m2530 -5 c11 -13 10
-14 -4 -9 -9 3 -16 10 -16 15 0 13 6 11 20 -6z m184 -1 c5 -12 2 -15 -10 -10
-8 3 -18 6 -20 6 -3 0 -2 5 1 10 9 15 22 12 29 -6z m-2599 -4 c3 -6 -1 -7 -9
-4 -18 7 -21 14 -7 14 6 0 13 -4 16 -10z m2785 -6 c0 -2 -7 -4 -15 -4 -8 0
-15 4 -15 10 0 5 7 7 15 4 8 -4 15 -8 15 -10z m-3513 0 c-3 -3 -12 -4 -19 -1
-8 3 -5 6 6 6 11 1 17 -2 13 -5z m548 -12 c-3 -3 -11 0 -18 7 -9 10 -8 11 6 5
10 -3 15 -9 12 -12z m3462 -14 c-3 -7 -5 -2 -5 12 0 14 2 19 5 13 2 -7 2 -19
0 -25z m-3875 0 c-6 -6 -20 -7 -33 -2 l-24 8 25 6 c30 8 46 2 32 -12z m4028 2
c0 -13 -6 -20 -17 -19 -11 0 -13 3 -5 6 6 2 12 11 12 19 0 8 2 14 5 14 3 0 5
-9 5 -20z m-4145 0 c3 -6 -1 -7 -9 -4 -18 7 -21 14 -7 14 6 0 13 -4 16 -10z
m4162 -12 c-3 -8 -6 -5 -6 6 -1 11 2 17 5 13 3 -3 4 -12 1 -19z m66 15 c-7 -2
-19 -2 -25 0 -7 3 -2 5 12 5 14 0 19 -2 13 -5z m-3950 -10 c-7 -2 -19 -2 -25
0 -7 3 -2 5 12 5 14 0 19 -2 13 -5z m3950 -10 c-7 -2 -19 -2 -25 0 -7 3 -2 5
12 5 14 0 19 -2 13 -5z m-4080 -10 c-7 -2 -19 -2 -25 0 -7 3 -2 5 12 5 14 0
19 -2 13 -5z m4867 -23 c4 0 10 -6 13 -14 4 -9 -3 -16 -19 -19 -17 -3 -24 -1
-20 8 2 7 -1 18 -7 25 -10 10 -8 12 6 6 10 -3 22 -6 27 -6z m180 -15 c0 -3 -8
-13 -18 -23 -15 -15 -21 -16 -30 -6 -18 19 -15 26 8 19 11 -4 20 -2 20 4 0 6
5 11 10 11 6 0 10 -2 10 -5z m107 -61 c-3 -3 -12 -4 -19 -1 -8 3 -5 6 6 6 11
1 17 -2 13 -5z m-1410 -100 c-3 -3 -12 -4 -19 -1 -8 3 -5 6 6 6 11 1 17 -2 13
-5z m-164 -71 c-7 -2 -19 -2 -25 0 -7 3 -2 5 12 5 14 0 19 -2 13 -5z m140 0
c-7 -2 -19 -2 -25 0 -7 3 -2 5 12 5 14 0 19 -2 13 -5z m-86 -19 c-3 -3 -12 -4
-19 -1 -8 3 -5 6 6 6 11 1 17 -2 13 -5z m146 -1 c-7 -2 -19 -2 -25 0 -7 3 -2
5 12 5 14 0 19 -2 13 -5z m-88 -43 c-3 -5 -12 -10 -18 -10 -7 0 -6 4 3 10 19
12 23 12 15 0z m150 0 c-3 -5 -12 -10 -18 -10 -7 0 -6 4 3 10 19 12 23 12 15
0z m-182 -27 c-7 -2 -21 -2 -30 0 -10 3 -4 5 12 5 17 0 24 -2 18 -5z m145 0
c-10 -2 -26 -2 -35 0 -10 3 -2 5 17 5 19 0 27 -2 18 -5z m1075 0 c-7 -2 -19
-2 -25 0 -7 3 -2 5 12 5 14 0 19 -2 13 -5z m-1225 -20 c-10 -2 -26 -2 -35 0
-10 3 -2 5 17 5 19 0 27 -2 18 -5z m150 0 c-10 -2 -28 -2 -40 0 -13 2 -5 4 17
4 22 1 32 -1 23 -4z m800 0 c-10 -2 -26 -2 -35 0 -10 3 -2 5 17 5 19 0 27 -2
18 -5z m190 0 c-10 -2 -26 -2 -35 0 -10 3 -2 5 17 5 19 0 27 -2 18 -5z m95 0
c-7 -2 -21 -2 -30 0 -10 3 -4 5 12 5 17 0 24 -2 18 -5z m-1198 -23 c3 -6 -1
-7 -9 -4 -18 7 -21 14 -7 14 6 0 13 -4 16 -10z m162 -10 c37 -20 37 -20 10
-20 -16 0 -26 4 -22 10 3 6 3 10 -2 11 -39 3 -71 19 -40 19 10 0 34 -9 54 -20z
m-87 -25 l25 -14 -35 0 c-24 -1 -31 2 -21 8 11 7 9 10 -10 14 -19 3 -19 5 -4
5 11 1 31 -5 45 -13z m917 9 c-3 -3 -12 -4 -19 -1 -8 3 -5 6 6 6 11 1 17 -2
13 -5z m-759 -21 c-10 -2 -26 -2 -35 0 -10 3 -2 5 17 5 19 0 27 -2 18 -5z
m1100 0 c-38 -2 -98 -2 -135 0 -38 2 -7 3 67 3 74 0 105 -1 68 -3z m-1250 -20
c-10 -2 -26 -2 -35 0 -10 3 -2 5 17 5 19 0 27 -2 18 -5z m150 0 c-10 -2 -26
-2 -35 0 -10 3 -2 5 17 5 19 0 27 -2 18 -5z m-158 -17 c0 -23 -16 -36 -44 -35
l-31 1 30 8 c25 6 26 8 7 9 -13 0 -21 4 -18 9 5 8 56 15 56 8z m140 -8 c0 -5
-14 -8 -31 -8 -16 0 -28 4 -25 9 7 11 56 9 56 -1z m-22 -25 c-10 -2 -26 -2
-35 0 -10 3 -2 5 17 5 19 0 27 -2 18 -5z m805 0 c-7 -2 -21 -2 -30 0 -10 3 -4
5 12 5 17 0 24 -2 18 -5z m134 1 c-3 -3 -12 -4 -19 -1 -8 3 -5 6 6 6 11 1 17
-2 13 -5z m56 -1 c-7 -2 -21 -2 -30 0 -10 3 -4 5 12 5 17 0 24 -2 18 -5z m140
0 c-24 -2 -62 -2 -85 0 -24 2 -5 4 42 4 47 0 66 -2 43 -4z m-1255 -20 c-10 -2
-26 -2 -35 0 -10 3 -2 5 17 5 19 0 27 -2 18 -5z m145 0 c-7 -2 -21 -2 -30 0
-10 3 -4 5 12 5 17 0 24 -2 18 -5z m800 0 c-7 -2 -19 -2 -25 0 -7 3 -2 5 12 5
14 0 19 -2 13 -5z m295 0 c-32 -2 -86 -2 -120 0 -35 2 -9 3 57 3 66 0 94 -1
63 -3z m-1163 -23 c25 -11 -1 -11 -35 0 -20 6 -21 8 -5 8 11 0 29 -3 40 -8z
m122 4 c-3 -3 -12 -4 -19 -1 -8 3 -5 6 6 6 11 1 17 -2 13 -5z m990 0 c-3 -3
-12 -4 -19 -1 -8 3 -5 6 6 6 11 1 17 -2 13 -5z m-1032 -34 c-3 -5 7 -11 22
-13 26 -4 26 -4 -4 -6 -18 0 -33 4 -33 9 0 6 -7 10 -15 10 -8 0 -15 4 -15 9 0
4 11 6 25 3 14 -2 22 -8 20 -12z m144 4 c2 -2 -7 -4 -22 -4 -14 0 -29 5 -32
10 -6 10 42 4 54 -6z m787 -2 c-10 -2 -22 0 -28 6 -6 6 0 7 19 4 21 -5 23 -7
9 -10z m-748 -19 c-10 -2 -26 -2 -35 0 -10 3 -2 5 17 5 19 0 27 -2 18 -5z
m805 0 c-7 -2 -21 -2 -30 0 -10 3 -4 5 12 5 17 0 24 -2 18 -5z m215 0 c-10 -2
-26 -2 -35 0 -10 3 -2 5 17 5 19 0 27 -2 18 -5z m-1128 -28 c0 -9 -12 -18 -30
-22 -17 -3 -33 -10 -36 -14 -3 -5 -15 -9 -27 -8 -15 0 -17 2 -7 6 24 9 50 35
44 44 -3 5 9 9 25 9 21 0 31 -5 31 -15z m143 0 c-1 -5 -7 -13 -15 -16 -54 -26
-68 -30 -84 -26 -13 3 -11 5 9 6 25 1 33 14 28 44 -1 5 13 7 31 5 18 -2 32 -7
31 -13z m795 8 c-10 -2 -26 -2 -35 0 -10 3 -2 5 17 5 19 0 27 -2 18 -5z m199
1 c-3 -3 -12 -4 -19 -1 -8 3 -5 6 6 6 11 1 17 -2 13 -5z m-200 -20 c-3 -3 -12
-4 -19 -1 -8 3 -5 6 6 6 11 1 17 -2 13 -5z m-64 -31 c-7 -2 -19 -2 -25 0 -7 3
-2 5 12 5 14 0 19 -2 13 -5z m255 0 c-27 -2 -69 -2 -95 0 -27 2 -5 3 47 3 52
0 74 -1 48 -3z m-1276 -30 c-44 -21 -51 -42 -24 -64 12 -9 22 -29 22 -43 0
-23 -4 -26 -35 -26 -39 0 -48 21 -17 39 16 10 15 10 -3 12 -17 1 -16 2 5 9 23
7 22 8 -10 9 -26 1 -31 4 -20 11 12 8 12 10 -5 10 -18 0 -18 2 5 20 14 11 35
20 48 20 13 0 20 4 17 10 -4 6 6 10 22 10 l28 0 -33 -17z m171 10 c-7 -2 -21
-2 -30 0 -10 3 -4 5 12 5 17 0 24 -2 18 -5z m800 0 c-7 -2 -21 -2 -30 0 -10 3
-4 5 12 5 17 0 24 -2 18 -5z m365 0 c-49 -2 -127 -2 -175 0 -49 1 -9 3 87 3
96 0 136 -2 88 -3z m-1211 -20 c-14 -4 -18 -12 -14 -28 3 -16 -1 -26 -12 -28
-9 -3 -4 -5 10 -6 31 -1 38 -15 29 -51 -4 -17 -15 -27 -35 -31 -17 -4 -22 -7
-11 -8 11 -1 -7 -14 -42 -32 -34 -17 -62 -36 -62 -44 0 -12 67 -45 90 -45 22
0 107 -46 144 -77 22 -18 48 -33 58 -33 10 0 26 -4 36 -9 9 -5 25 -12 36 -15
15 -5 16 -9 6 -21 -7 -8 -19 -15 -26 -15 -8 0 -14 -4 -14 -10 0 -5 -9 -10 -20
-10 -17 0 -19 -3 -10 -19 13 -25 13 -24 -10 -51 -30 -34 -22 -51 38 -83 28
-16 52 -32 52 -37 0 -5 -26 -21 -57 -35 -103 -45 -108 -49 -108 -94 -1 -23 -8
-48 -17 -58 -18 -20 -21 -63 -3 -60 5 1 10 -5 10 -13 0 -9 -22 -22 -60 -35
-65 -21 -78 -32 -69 -55 16 -39 16 -50 0 -50 -9 0 -24 -4 -34 -9 -9 -5 -38
-18 -64 -28 -27 -10 -58 -25 -70 -35 -18 -13 -20 -19 -9 -32 7 -8 29 -20 49
-27 67 -21 152 -59 152 -68 0 -9 -52 -31 -73 -31 -10 0 -15 -4 -12 -10 5 -9
-7 -14 -26 -12 -14 2 5 -40 22 -51 32 -20 21 -33 -41 -52 -65 -20 -78 -30 -85
-66 -3 -13 -16 -33 -30 -45 -14 -12 -25 -26 -25 -32 0 -6 24 -22 54 -36 30
-14 58 -31 61 -37 8 -11 -22 -49 -39 -49 -6 0 -19 -7 -29 -15 -17 -12 -17 -18
-8 -48 11 -32 28 -45 86 -67 11 -4 49 -21 84 -37 l64 -29 -57 -30 c-31 -16
-56 -32 -56 -36 0 -5 0 -11 1 -14 0 -4 -5 -11 -13 -16 -10 -7 -10 -9 2 -7 28
3 38 -1 44 -16 6 -17 -26 -33 -119 -60 -95 -28 -116 -41 -113 -73 1 -16 -4
-43 -11 -61 -16 -37 -9 -49 42 -68 22 -8 26 -12 12 -12 -24 -1 -105 26 -122
41 -10 8 -9 16 2 39 8 15 15 42 15 59 0 37 10 42 155 79 20 5 47 17 61 26 l26
17 -28 29 c-32 34 -32 34 44 71 23 11 42 25 42 32 0 10 -110 66 -131 66 -5 0
-9 5 -9 10 0 6 -10 10 -23 10 -29 0 -67 34 -67 60 0 12 16 31 43 47 23 16 43
33 44 40 3 13 -40 47 -74 57 -40 13 -45 31 -18 60 14 15 25 35 25 45 0 25 15
35 82 57 32 11 60 25 62 31 3 7 -6 23 -20 36 l-25 24 23 15 c13 8 38 21 56 29
17 8 32 18 32 23 0 16 -32 46 -50 46 -9 0 -20 3 -24 7 -4 4 -33 17 -63 28 -31
11 -58 25 -60 31 -4 14 58 48 129 70 62 19 75 34 56 64 -15 23 -2 40 31 43 11
1 21 5 21 9 0 4 9 8 19 8 10 0 29 9 42 19 l24 20 -23 21 c-18 17 -20 25 -12
40 6 11 15 20 20 20 6 0 10 19 10 43 0 44 15 61 60 69 8 2 17 6 20 9 3 4 24
16 48 28 23 12 42 23 42 25 0 15 -14 36 -25 36 -17 0 -71 28 -85 45 -9 11 -7
18 9 32 12 10 21 29 21 45 0 22 5 28 23 29 12 0 16 3 9 6 -10 4 -7 9 9 17 12
6 25 20 29 31 7 17 3 21 -18 23 -14 1 -31 7 -36 12 -6 6 -19 10 -30 10 -22 0
-89 48 -82 59 3 4 -5 8 -17 8 -12 1 -23 7 -25 13 -2 5 -11 10 -20 10 -20 0
-101 29 -125 46 -18 12 -18 13 7 29 14 9 31 13 37 9 8 -4 9 -3 5 4 -4 7 3 14
19 18 14 3 25 10 25 15 0 5 6 9 14 9 32 0 37 88 6 110 -20 15 -20 15 2 32 13
10 37 17 53 17 19 -1 23 -3 12 -6z m812 3 c-12 -10 -60 -16 -54 -6 3 5 18 10
32 10 15 0 24 -2 22 -4z m294 -3 c-34 -2 -93 -2 -130 0 -37 2 -9 3 62 3 72 0
102 -1 68 -3z m-343 -34 c-24 -7 -24 -7 5 -9 26 -1 27 -3 10 -10 -17 -7 -14
-9 15 -11 l35 -2 -33 -4 c-25 -3 -38 1 -53 18 -23 27 -17 38 18 31 l28 -6 -25
-7z m360 7 c19 -1 -29 -3 -107 -4 -79 -1 -143 1 -143 6 0 6 167 6 250 -2z m78
-23 c-60 -2 -156 -2 -215 0 -60 1 -11 3 107 3 118 0 167 -2 108 -3z m-15 -20
c-51 -2 -136 -2 -190 0 -54 1 -12 3 92 3 105 0 149 -2 98 -3z m-366 -33 c-1
-16 -8 -20 -34 -20 -21 0 -33 5 -33 13 0 20 10 27 41 27 22 0 27 -4 26 -20z
m211 15 c-3 -3 -28 -6 -57 -6 -28 -1 -54 -5 -56 -9 -3 -5 57 -9 132 -9 75 -1
139 -4 142 -6 2 -3 -62 -5 -142 -5 -116 0 -147 3 -147 13 0 23 11 27 73 27 33
0 58 -2 55 -5z m-1178 -52 c-8 -3 -17 -9 -20 -12 -9 -12 -114 -60 -140 -64
-24 -4 -24 -4 3 -6 15 0 27 -5 27 -9 0 -10 37 -28 100 -48 60 -20 92 -36 110
-55 20 -21 54 -40 109 -59 25 -9 46 -21 48 -27 5 -13 -50 -42 -81 -44 -19 -1
-19 -2 -2 -6 15 -4 16 -7 5 -14 -10 -6 -10 -9 -1 -9 19 0 14 -25 -8 -45 -11
-10 -20 -23 -20 -28 0 -13 26 -33 70 -54 55 -27 54 -36 -7 -65 -31 -16 -61
-28 -67 -28 -23 0 -46 -35 -46 -70 0 -24 -7 -43 -20 -55 -26 -23 -25 -33 2
-57 23 -19 23 -20 4 -34 -11 -8 -30 -14 -42 -14 -13 0 -26 -4 -29 -10 -3 -5
-15 -10 -26 -10 -25 0 -36 -27 -20 -52 13 -21 7 -38 -15 -38 -8 0 -22 -4 -32
-9 -9 -5 -44 -22 -77 -37 -92 -42 -92 -56 0 -88 57 -20 135 -57 135 -64 0 -13
-38 -31 -65 -32 -23 0 -27 -3 -15 -10 13 -8 13 -10 -1 -10 -31 0 -32 -33 -3
-57 l28 -22 -28 -10 c-15 -6 -29 -11 -32 -11 -2 0 -24 -9 -49 -21 -35 -16 -45
-27 -45 -45 0 -13 -12 -34 -26 -48 -32 -29 -27 -53 16 -67 16 -6 27 -15 24
-20 -3 -5 1 -6 9 -3 16 6 50 -23 42 -36 -3 -5 -23 -19 -45 -31 -28 -16 -40
-29 -40 -45 0 -31 36 -66 85 -83 68 -23 145 -63 140 -71 -3 -5 -25 -18 -49
-30 -52 -25 -63 -44 -36 -67 26 -22 26 -43 0 -43 -11 0 -20 -4 -20 -9 0 -5
-12 -11 -27 -14 -16 -3 -45 -10 -65 -15 -22 -6 -38 -6 -38 -1 0 5 10 9 23 9
31 0 75 21 82 40 4 8 -2 22 -12 30 -29 25 -25 36 25 62 60 31 64 50 15 73 -21
10 -56 26 -77 36 -22 11 -46 19 -53 19 -7 0 -13 5 -13 10 0 6 -7 10 -15 10
-12 0 -23 13 -37 43 -1 4 18 21 45 37 26 17 47 37 47 45 0 19 -39 55 -60 55
-9 0 -26 8 -37 18 -20 17 -20 17 4 42 12 13 23 30 23 37 0 7 5 13 11 13 5 0 8
4 5 9 -8 12 11 25 69 46 56 20 68 28 71 50 1 9 -6 15 -17 15 -45 0 -24 58 21
60 8 0 26 9 40 20 l25 19 -22 20 c-12 12 -28 21 -36 21 -7 0 -17 3 -20 7 -4 3
-30 14 -58 24 -84 30 -87 37 -27 70 29 15 60 28 69 29 9 0 27 6 40 13 51 26
51 27 35 52 -19 28 -14 33 67 65 31 12 59 26 62 30 3 4 -4 18 -15 30 -24 28
-24 26 0 58 15 19 19 34 14 55 -7 34 16 56 59 57 16 0 26 3 23 8 -2 4 15 16
39 25 41 18 68 47 42 47 -8 0 -6 4 3 10 12 8 11 10 -6 10 -26 0 -77 25 -94 46
-11 12 -9 18 9 35 16 15 21 28 17 45 -5 17 -2 24 9 24 8 0 15 5 15 10 0 6 6
10 14 10 20 0 37 25 30 44 -3 9 -17 16 -30 16 -13 0 -24 5 -24 10 0 6 -8 10
-18 10 -27 0 -75 26 -92 50 -8 11 -20 20 -27 20 -7 0 -13 5 -13 10 0 6 -11 10
-24 10 -14 0 -27 4 -30 9 -3 5 -22 12 -41 15 -19 4 -35 11 -35 16 0 6 -9 10
-21 10 -33 0 -12 19 59 52 37 17 69 35 70 40 2 4 18 8 35 7 18 0 25 -3 17 -6z
m948 0 c-10 -2 -26 -2 -35 0 -10 3 -2 5 17 5 19 0 27 -2 18 -5z m302 -3 l-205
-6 205 -4 205 -4 -220 -6 c-121 -3 -174 -7 -117 -8 149 -3 130 -22 -25 -24
-78 -2 -26 -5 132 -8 l260 -6 -285 -1 c-157 0 -276 2 -265 4 11 3 42 20 70 38
l50 34 200 -2 200 -1 -205 -6z m-321 -14 c-2 -2 -13 -6 -24 -8 -11 -1 -26 -9
-33 -15 -13 -13 -61 -19 -49 -7 16 17 55 32 81 33 16 1 27 -1 25 -3z m-124
-57 c-16 -4 -22 -7 -13 -8 10 0 26 -8 37 -18 11 -9 50 -26 88 -39 56 -19 62
-23 36 -23 -18 -1 -33 4 -33 9 0 6 -8 10 -19 10 -17 0 -46 10 -122 43 -20 8
-24 14 -15 22 16 17 39 23 56 16 10 -4 5 -8 -15 -12z m578 -16 c-90 -2 -236
-2 -325 0 -90 1 -17 3 162 3 179 0 252 -2 163 -3z m-14 -18 c-3 -2 -62 -5
-132 -6 -70 -1 -127 -5 -127 -8 0 -4 78 -8 172 -10 95 -1 175 -4 177 -7 2 -2
-95 -4 -216 -4 -121 0 -223 3 -227 8 -4 4 -24 12 -44 18 -31 10 2 12 182 13
121 1 217 -1 215 -4z m79 -52 c-71 -2 -185 -2 -255 0 -71 1 -13 3 127 3 140 0
198 -2 128 -3z m-404 -48 c22 -20 49 -36 64 -36 25 -2 26 -2 3 -6 -13 -3 -28
0 -34 6 -6 6 -19 11 -29 11 -19 0 -61 23 -86 47 -11 11 -8 13 16 13 20 0 41
-11 66 -35z m256 25 c-144 -5 -156 -6 -67 -8 122 -2 147 -18 30 -20 -126 -2
-99 -6 77 -12 l165 -6 -163 -2 c-140 -2 -167 0 -190 15 -66 43 -64 43 135 41
l188 -2 -175 -6z m143 -67 c-40 -2 -106 -2 -145 0 -40 1 -8 3 72 3 80 0 112
-2 73 -3z m-257 -24 c9 -14 -14 -29 -46 -29 -20 0 -22 -2 -10 -10 11 -7 6 -10
-20 -10 -35 0 -35 0 -10 13 14 7 24 21 24 30 -1 12 6 17 27 17 15 0 31 -5 35
-11z m199 1 c-55 -3 -98 -7 -95 -8 3 -2 32 -5 65 -9 84 -8 81 -13 -7 -13 -71
0 -76 1 -71 20 5 19 13 20 107 18 l101 -2 -100 -6z m83 -47 c-42 -2 -114 -2
-160 0 -46 1 -11 3 77 3 88 0 125 -2 83 -3z m-373 -23 l-30 -8 28 -1 c32 -1
38 -30 7 -38 -11 -3 -17 -9 -14 -14 3 -5 -2 -9 -11 -9 -15 0 -15 -2 1 -17 9
-10 29 -26 43 -35 24 -17 24 -18 5 -18 -11 0 -36 8 -54 17 -31 15 -32 17 -14
25 14 6 12 7 -8 3 -34 -7 -38 13 -7 41 14 12 18 25 14 41 -5 21 -2 23 32 22
38 -1 38 -1 8 -9z m393 3 c-54 -2 -142 -2 -195 0 -54 1 -10 3 97 3 107 0 151
-2 98 -3z m-39 -17 c-10 -10 -239 -15 -239 -6 0 6 48 10 122 10 67 0 119 -2
117 -4z m11 -29 c25 -2 -25 -4 -110 -4 -85 -1 -147 1 -138 5 16 7 143 6 248
-1z m42 -24 c-62 -2 -161 -2 -220 0 -59 1 -8 3 113 3 121 0 169 -2 107 -3z
m-107 -23 c-104 -3 -172 -7 -150 -8 22 -2 71 -5 109 -8 38 -2 72 -6 74 -9 10
-10 -223 -5 -238 5 -13 9 -13 10 0 11 10 0 8 3 -5 9 -12 5 65 8 190 7 l210 -1
-190 -6z m103 -47 c-49 -2 -127 -2 -175 0 -49 1 -9 3 87 3 96 0 136 -2 88 -3z
m-320 -20 c-10 -2 -26 -2 -35 0 -10 3 -2 5 17 5 19 0 27 -2 18 -5z m330 0
c-43 -2 -113 -2 -155 0 -43 1 -8 3 77 3 85 0 120 -2 78 -3z m-363 -43 c-32
-16 -70 -30 -83 -30 -14 0 -23 -3 -19 -6 3 -4 0 -13 -8 -20 -8 -9 -12 -26 -9
-47 4 -26 -1 -38 -24 -63 l-29 -30 28 -13 c37 -16 37 -26 -3 -41 -18 -6 -41
-16 -50 -21 -10 -5 -27 -9 -38 -9 -22 0 -28 -38 -9 -57 15 -15 3 -33 -22 -33
-10 0 -19 -3 -19 -7 0 -5 -27 -16 -60 -27 -33 -10 -60 -22 -60 -27 0 -5 -6 -9
-14 -9 -19 0 -28 -26 -13 -38 7 -5 35 -16 62 -26 58 -20 135 -57 135 -64 0
-13 -38 -31 -65 -32 -23 0 -27 -3 -15 -10 13 -8 12 -10 -2 -10 -10 0 -19 -3
-19 -7 -6 -32 -5 -52 1 -48 4 2 16 -2 26 -10 18 -13 17 -15 -17 -29 -19 -8
-47 -18 -61 -21 -14 -4 -35 -15 -47 -26 -11 -11 -34 -19 -53 -19 -30 0 -31 1
-13 13 11 7 43 22 70 32 28 10 58 23 67 30 15 10 14 13 -12 29 -32 18 -40 46
-15 46 8 0 15 5 15 10 0 6 8 10 18 10 9 0 28 9 42 20 23 19 24 21 8 34 -10 7
-15 16 -11 19 3 4 -5 7 -19 7 -13 0 -28 3 -32 7 -3 4 -34 16 -68 27 -34 12
-63 26 -65 32 -3 10 95 64 117 64 6 0 29 9 53 19 23 11 51 22 62 24 16 4 15 5
-5 6 -26 1 -55 35 -45 51 4 6 17 10 31 10 13 0 24 4 24 9 0 5 12 11 28 14 15
3 36 12 46 20 19 14 19 15 -7 37 l-26 23 23 28 c18 21 23 37 19 62 -4 35 0 39
77 70 51 20 90 42 90 49 0 5 17 8 37 8 l37 0 -59 -30z m278 23 c-51 -2 -93 -8
-93 -13 0 -5 39 -11 88 -13 77 -2 71 -3 -48 -7 l-135 -4 165 -6 165 -6 -190
-2 -190 -1 48 21 c26 11 47 24 47 29 0 5 53 8 118 7 115 -2 116 -2 25 -5z m-8
-73 c-192 -5 -195 -6 -70 -9 157 -4 127 -17 -50 -22 -105 -3 -94 -4 85 -9
l205 -6 -237 -2 c-232 -2 -238 -1 -238 18 0 11 7 20 15 20 8 0 15 5 15 10 0 6
84 9 238 8 l237 -2 -200 -6z m113 -67 c-75 -2 -201 -2 -280 0 -79 1 -17 3 137
3 154 0 218 -2 143 -3z m-108 -22 l-165 -4 135 -12 135 -12 -175 -4 -175 -3
225 -6 225 -6 -260 -4 -260 -4 260 -6 260 -6 -263 -2 c-223 -2 -266 0 -278 13
-14 14 -11 19 9 16 5 -1 6 3 2 9 -3 5 1 13 9 16 9 3 13 10 10 15 -3 5 95 8
233 7 228 -2 231 -3 73 -7z m70 -88 c-25 -1 -74 -6 -110 -10 -63 -8 -62 -8 55
-13 95 -5 70 -6 -115 -8 -165 -1 -230 2 -217 9 9 6 15 14 12 20 -4 5 76 8 207
7 117 -1 193 -3 168 -5z m-170 -53 l-285 -5 290 -5 290 -4 -190 -6 c-149 -4
-168 -6 -85 -9 169 -4 165 -19 -5 -23 -144 -2 -141 -3 75 -8 l225 -6 -319 -2
c-291 -2 -320 0 -331 15 -17 24 -8 43 21 43 13 0 24 5 24 10 0 6 101 9 288 8
l287 -3 -285 -5z m45 -90 l-340 -5 280 -5 c242 -4 261 -5 140 -10 -113 -4
-131 -6 -91 -12 27 -5 90 -9 140 -10 50 -1 -19 -5 -154 -8 l-245 -6 300 -4
300 -5 -390 -5 -390 -5 375 -5 375 -5 -285 -5 c-276 -5 -279 -6 -87 -8 129 -1
196 -5 192 -12 -3 -5 -32 -11 -63 -12 -31 -1 2 -5 73 -8 111 -5 89 -7 -150
-10 l-280 -5 305 -5 305 -5 -371 -3 c-204 -1 -374 1 -378 5 -3 4 -34 16 -68
27 -58 20 -89 46 -54 46 9 0 16 3 16 8 0 9 58 34 123 53 26 7 47 17 47 21 0 4
161 7 358 6 l357 -3 -340 -5z m125 -180 c-76 -3 -107 -7 -70 -8 141 -5 108
-17 -60 -22 l-175 -6 245 -4 245 -5 -340 -5 -340 -5 360 -5 360 -5 -320 -5
-320 -5 270 -4 c269 -4 271 -7 15 -22 -30 -2 24 -6 120 -9 170 -6 167 -6 -125
-10 l-300 -5 345 -5 345 -5 -403 -3 c-356 -2 -406 0 -427 14 -14 9 -25 21 -25
27 0 13 31 36 51 37 8 0 26 10 38 22 23 20 23 22 5 35 -15 11 35 13 312 11
238 -2 292 -4 194 -8z m-40 -160 c-167 -4 -200 -6 -115 -8 193 -5 228 -19 55
-23 -144 -3 -143 -3 70 -9 207 -5 202 -6 -160 -10 l-375 -5 390 -5 390 -5
-450 -5 -450 -5 405 -5 c223 -3 351 -7 285 -9 -130 -4 -132 -7 -10 -20 69 -7
51 -9 -135 -12 l-215 -4 285 -5 c263 -5 247 -6 -194 -8 -464 -2 -479 -1 -463
16 10 10 17 24 17 30 0 7 6 12 13 12 9 0 9 2 -1 9 -15 9 57 47 109 58 16 3 29
9 29 14 0 5 167 8 378 7 358 -2 365 -3 142 -8z m-750 -87 c0 -17 -46 -53 -69
-54 -24 -2 -24 -2 -3 -6 12 -2 20 -8 17 -13 -3 -4 22 -20 55 -36 32 -15 61
-33 64 -40 5 -13 -29 -44 -48 -44 -5 0 -17 -9 -27 -21 -14 -16 -15 -26 -8 -48
10 -29 23 -38 96 -65 75 -28 133 -58 128 -66 -3 -5 -25 -18 -49 -30 -52 -25
-63 -44 -36 -67 27 -23 25 -36 -7 -50 -38 -15 -87 -23 -75 -11 5 5 18 10 29
11 25 1 19 33 -8 50 -30 19 -22 36 28 60 66 31 66 49 -2 81 -30 14 -62 26 -71
26 -8 0 -12 5 -9 10 4 6 -6 10 -22 10 -38 1 -67 24 -60 50 3 11 1 18 -4 14 -5
-3 -9 -2 -9 3 0 4 20 20 45 35 64 39 60 64 -17 97 -59 25 -63 33 -33 61 14 13
25 29 25 37 0 8 13 13 35 13 19 0 35 -3 35 -7z m760 -73 l-265 -6 195 -3 c195
-4 187 -13 -20 -22 -50 -2 -20 -5 90 -9 133 -5 90 -7 -225 -10 l-390 -5 465
-5 465 -5 -375 -5 -375 -5 335 -5 c286 -5 308 -6 150 -9 -155 -3 -174 -5 -117
-12 38 -4 71 -10 75 -13 3 -3 -53 -7 -124 -8 -77 -2 -23 -5 136 -8 l265 -6
-410 -4 -410 -5 395 -5 395 -5 -305 -5 -305 -4 230 -6 c163 -4 199 -7 125 -9
-101 -4 -103 -4 -45 -11 33 -4 92 -9 130 -11 39 -2 -45 -6 -185 -9 l-255 -6
295 -4 295 -5 -400 -5 -400 -5 405 -5 c403 -4 404 -4 160 -10 -245 -6 -245 -6
-75 -8 203 -4 197 -19 -10 -23 -131 -3 -127 -4 75 -9 206 -5 201 -6 -126 -8
-319 -2 -343 -1 -380 17 -22 11 -54 23 -70 27 l-29 8 25 7 c19 5 14 7 -22 8
-27 1 -48 6 -48 11 0 6 -6 10 -14 10 -21 0 -30 48 -12 65 8 8 18 15 23 15 4 0
19 9 32 19 34 26 21 56 -34 77 -25 9 -50 23 -56 30 -10 12 66 14 487 12 425
-2 460 -3 234 -8z m1352 -177 c38 -13 51 -25 72 -63 23 -43 25 -52 16 -105 -6
-39 -17 -67 -32 -81 -29 -29 -125 -67 -133 -53 -4 5 -14 8 -23 5 -10 -3 -26 3
-38 12 -62 52 -79 135 -42 212 27 55 40 69 76 80 41 12 53 12 104 -7z m-1422
-143 l-385 -5 320 -5 c283 -4 301 -5 155 -10 l-165 -5 110 -8 c61 -5 115 -10
120 -12 6 -2 -75 -5 -180 -6 -177 -3 -169 -4 110 -9 l300 -5 -430 -5 -430 -5
415 -5 415 -5 -355 -5 -355 -5 275 -5 c151 -3 228 -7 170 -8 -142 -4 -103 -20
60 -24 69 -1 -12 -5 -180 -8 l-305 -5 325 -5 325 -5 -405 -5 -405 -5 385 -5
c340 -4 363 -5 195 -10 -140 -4 -162 -6 -85 -8 58 -1 112 -7 120 -12 10 -7
-39 -10 -150 -12 -159 -2 -156 -3 75 -8 211 -5 181 -6 -250 -10 l-490 -5 525
-5 525 -5 -350 -5 -350 -5 275 -5 c152 -3 218 -6 147 -8 -166 -3 -161 -21 6
-24 67 -2 -8 -5 -168 -8 l-290 -5 350 -5 350 -5 -390 -5 -390 -5 370 -5 370
-5 -320 -5 c-290 -5 -300 -6 -112 -8 136 -1 206 -5 202 -12 -3 -5 -48 -11 -98
-12 -51 -1 -4 -5 103 -8 183 -5 174 -6 -160 -10 l-355 -5 370 -5 370 -6 -420
1 c-380 0 -426 2 -485 19 -36 10 -75 27 -87 36 -20 15 -21 19 -8 36 8 11 15
36 15 56 0 34 3 37 48 53 26 9 57 21 70 26 13 5 36 9 52 9 17 0 30 5 30 10 0
6 7 10 15 10 8 0 16 3 16 8 5 29 5 51 0 50 -49 -5 -38 28 19 57 28 14 50 30
50 35 0 6 140 9 393 8 l392 -3 -385 -5z m-717 -190 c-50 -17 -97 -50 -74 -50
16 0 13 -35 -6 -68 -15 -27 -16 -31 -1 -45 8 -9 28 -19 42 -23 15 -3 25 -9 22
-12 -9 -8 -99 20 -123 38 -21 16 -21 18 -6 40 9 13 16 38 15 56 -2 30 1 33 45
49 27 9 57 21 68 25 11 5 31 9 45 9 16 0 7 -6 -27 -19z m-977 -5 c-10 -8 -24
-16 -30 -18 -6 -2 -9 -18 -8 -36 1 -18 -4 -42 -13 -54 -24 -34 -18 -46 28 -67
37 -17 39 -20 15 -20 -15 0 -30 5 -33 10 -3 6 -16 10 -28 10 -12 0 -33 9 -45
19 -23 17 -23 19 -7 35 10 9 18 31 19 49 2 45 11 55 64 71 59 18 61 18 38 1z
m124 -221 c28 -8 50 -23 50 -34 0 -4 -9 -17 -20 -30 -11 -12 -17 -27 -14 -32
3 -5 35 -23 70 -40 49 -23 64 -36 64 -52 0 -11 4 -25 8 -31 10 -14 49 -35 66
-35 7 0 19 -7 26 -15 11 -13 9 -19 -9 -34 -28 -24 -27 -39 6 -73 l27 -28 -22
-23 c-31 -33 -27 -52 12 -71 54 -25 61 -40 33 -68 -43 -41 -77 -68 -88 -68 -5
0 -24 -14 -42 -30 l-32 -31 25 -19 c14 -11 30 -20 36 -20 18 0 26 -31 13 -46
-6 -8 -22 -14 -36 -14 -14 0 -21 -4 -18 -10 4 -6 -8 -10 -27 -11 -18 0 -27 -3
-20 -6 6 -2 10 -9 7 -13 -6 -9 66 -60 84 -60 5 0 13 -6 19 -13 15 -18 -8 -44
-43 -50 -29 -4 -29 -4 5 -7 l35 -2 -30 -8 c-24 -6 -26 -8 -8 -9 27 -1 64 -31
56 -44 -3 -6 -1 -7 4 -4 6 4 16 0 23 -8 9 -11 9 -18 -3 -30 -9 -8 -20 -15 -27
-15 -6 0 -16 -11 -22 -25 -8 -18 -19 -25 -40 -25 -15 0 -28 2 -28 5 0 3 18 22
39 43 l39 38 -34 27 c-38 33 -51 62 -34 82 7 8 10 21 7 29 -3 8 -1 17 6 20 7
2 0 5 -15 5 -30 1 -88 31 -88 46 0 6 19 19 42 30 72 35 73 59 6 94 -16 8 -28
18 -28 22 0 14 58 49 82 49 14 0 18 3 11 8 -8 5 -3 14 17 27 17 11 30 23 30
28 0 4 15 8 33 8 21 1 25 3 11 6 -16 3 -20 10 -17 23 4 14 -7 26 -42 48 l-46
29 25 30 c14 17 26 33 26 36 0 3 -14 19 -31 36 l-30 31 26 26 c25 25 25 27 9
45 -9 10 -26 19 -36 19 -11 0 -16 5 -13 10 4 6 -5 10 -19 10 -25 0 -30 12 -25
57 1 7 -90 52 -107 52 -6 1 -17 8 -25 17 -10 13 -10 17 0 24 7 4 21 6 30 5 9
-1 10 0 3 2 -7 3 -9 9 -6 15 11 18 -18 58 -42 58 -13 0 -25 4 -28 9 -5 8 17 4
84 -15z m133 5 c27 -8 53 -19 58 -25 17 -20 -1 -44 -35 -45 -17 -1 -24 -3 -15
-6 10 -2 19 -12 22 -22 2 -9 26 -25 53 -36 58 -22 81 -42 86 -73 3 -23 23 -38
82 -61 28 -11 28 -12 11 -31 -11 -12 -31 -20 -49 -20 -23 0 -27 3 -18 12 22
22 13 35 -43 62 -43 20 -55 31 -55 49 0 20 -30 57 -47 57 -15 0 -83 35 -83 43
0 4 7 15 16 24 8 9 14 25 12 36 -3 20 -9 24 -58 46 -29 13 -9 10 63 -10z m788
4 c30 -9 60 -22 68 -29 19 -17 6 -44 -21 -44 -17 0 -19 -3 -10 -9 8 -4 13 -11
13 -15 -3 -18 0 -26 9 -26 5 0 34 -12 65 -26 37 -18 55 -32 55 -44 0 -29 11
-50 26 -50 8 0 14 -4 14 -10 0 -5 11 -10 24 -10 13 0 29 -7 36 -15 11 -13 10
-18 -6 -30 -10 -8 -32 -15 -47 -15 -26 0 -27 2 -13 15 13 13 13 20 3 35 -6 11
-19 20 -27 20 -33 0 -70 25 -70 47 0 30 -28 54 -89 78 -57 22 -70 51 -21 47 3
0 6 10 5 22 0 28 -22 56 -44 56 -18 0 -52 20 -35 20 7 0 36 -7 65 -17z m709
-23 c-157 -5 -174 -6 -90 -9 186 -6 175 -18 -20 -22 l-185 -3 235 -6 235 -6
-360 -4 -360 -5 380 -5 380 -5 -255 -5 -255 -4 215 -6 c118 -3 176 -7 129 -8
-47 -1 -122 -5 -165 -9 -78 -8 -77 -8 66 -13 113 -5 81 -6 -150 -8 -252 -2
-301 0 -337 14 -41 16 -59 44 -29 44 18 0 28 40 14 57 -8 11 58 13 368 11 317
-2 347 -3 184 -8z m-90 -140 l-355 -5 295 -5 295 -4 -235 -6 c-210 -5 -220 -6
-95 -9 200 -5 233 -18 55 -22 -141 -3 -139 -4 75 -9 l220 -6 -302 -2 -303 -2
0 24 c0 14 -7 32 -16 40 -14 15 18 16 353 14 l368 -3 -355 -5z m1433 -84 c7 8
67 -25 67 -36 0 -5 8 -17 19 -27 23 -22 37 -78 22 -88 -6 -3 -11 -24 -11 -46
0 -30 -4 -39 -17 -39 -15 0 -16 -2 -4 -9 12 -8 9 -12 -15 -23 -16 -7 -31 -16
-34 -20 -4 -4 -26 -9 -50 -10 -25 -2 -48 -7 -52 -13 -5 -6 -8 -5 -8 3 0 6 -8
12 -18 12 -10 0 -33 16 -50 36 -25 28 -32 45 -33 84 -3 67 41 158 79 166 15 3
34 9 42 13 8 5 25 5 36 0 12 -4 24 -5 27 -3z m-1438 -6 l-260 -6 220 -4 220
-4 -150 -5 -150 -4 130 -12 130 -12 -180 -4 -180 -3 225 -6 225 -6 -250 -1
c-137 -1 -243 1 -235 5 32 15 11 54 -35 65 -11 2 108 4 265 4 l285 -1 -260 -6z
m-1170 -90 c-3 -6 8 -23 25 -38 l31 -28 -26 -28 c-14 -15 -25 -33 -25 -40 0
-7 20 -23 45 -36 25 -13 45 -24 45 -26 0 -18 -17 -34 -39 -35 -22 0 -23 -2 -7
-8 17 -7 16 -10 -16 -34 -19 -15 -48 -27 -64 -28 -25 0 -26 -2 -9 -9 11 -5 14
-9 7 -9 -18 -1 -42 -26 -42 -44 0 -8 16 -22 35 -31 19 -9 37 -21 40 -26 9 -14
-20 -40 -44 -40 -12 0 -21 -4 -21 -10 0 -5 -9 -10 -19 -10 -32 0 -15 -45 23
-60 19 -8 18 -9 -9 -9 -31 0 -86 27 -92 44 -2 6 20 20 47 32 45 20 50 25 48
52 -1 16 -5 29 -8 29 -18 -2 -37 4 -54 17 -21 16 -13 29 38 55 15 8 49 35 75
60 25 24 50 43 54 42 19 -6 -14 35 -40 48 -52 27 -68 55 -38 66 28 11 28 44 1
65 -38 30 -34 49 10 49 21 0 33 -4 29 -10z m805 -2 c0 -6 7 -20 17 -30 15 -17
15 -18 -12 -18 -23 0 -75 38 -75 56 0 2 16 4 35 4 20 0 35 -5 35 -12z m355 2
l-220 -6 189 -2 c104 -1 187 -4 185 -6 -3 -3 -61 -7 -254 -18 -22 -1 25 -5
105 -8 l145 -6 -191 -2 c-180 -2 -192 -1 -209 18 -10 11 -14 20 -9 20 5 0 2 5
-6 10 -10 6 71 9 235 8 l250 -2 -220 -6z m-305 -70 c0 -6 -6 -13 -14 -16 -8
-3 -19 -19 -25 -35 -8 -25 -7 -29 7 -29 15 0 15 -2 2 -10 -12 -8 -10 -10 10
-10 14 0 36 -9 50 -20 l25 -20 -30 -1 c-29 -1 -30 -1 -5 -9 23 -7 22 -8 -10
-10 -29 -1 -32 -3 -15 -10 17 -7 16 -9 -10 -10 -24 -1 -26 -3 -11 -9 15 -6 12
-11 -23 -34 -22 -15 -43 -27 -46 -27 -10 0 -35 -28 -35 -39 0 -6 -13 -11 -30
-11 -16 0 -30 4 -30 8 0 16 25 32 50 32 20 0 22 2 10 10 -11 7 -6 10 20 11 29
0 31 2 15 9 -11 5 -15 9 -10 9 17 1 85 69 85 84 0 16 -23 37 -62 57 -34 17
-34 21 -3 48 14 12 25 26 25 32 0 5 14 10 30 10 17 0 30 -5 30 -10z m335 0
l-240 -6 190 -4 190 -4 -175 -5 -175 -4 110 -12 110 -12 -135 -4 c-120 -3
-108 -4 100 -9 l235 -6 -252 -2 c-139 -1 -253 2 -253 6 0 5 11 19 25 32 13 12
22 27 19 31 -3 5 106 8 243 7 l248 -2 -240 -6z m68 -87 c-62 -2 -165 -2 -230
0 -65 1 -14 3 112 3 127 0 180 -2 118 -3z m-113 -23 c-137 -6 -127 -18 20 -23
94 -2 91 -3 -37 -5 -118 -2 -143 1 -143 12 0 8 -6 17 -12 19 -7 3 55 5 137 4
l150 -1 -115 -6z m113 -47 c-51 -2 -136 -2 -190 0 -54 1 -12 3 92 3 105 0 149
-2 98 -3z m-30 -20 c-51 -2 -135 -2 -185 0 -51 1 -10 3 92 3 102 0 143 -2 93
-3z m-73 -24 c-25 -4 -85 -9 -135 -10 -74 -3 -63 -4 65 -9 l155 -6 -174 -2
-173 -2 23 20 c21 17 39 19 154 18 98 0 119 -2 85 -9z m53 -46 c-62 -2 -165
-2 -230 0 -65 1 -14 3 112 3 127 0 180 -2 118 -3z m-100 -20 c-166 -4 -208
-20 -65 -26 54 -2 27 -4 -70 -5 -87 -1 -158 2 -158 6 0 28 29 32 235 30 189
-2 195 -3 58 -5z m-353 -51 c0 -4 10 -12 22 -17 12 -6 24 -16 26 -24 3 -8 0
-11 -7 -7 -6 4 -11 1 -11 -8 0 -9 -8 -16 -19 -16 -11 0 -23 -4 -26 -10 -3 -5
-18 -10 -33 -10 -21 0 -24 -2 -12 -10 8 -5 11 -10 6 -10 -13 0 16 -31 39 -40
18 -8 17 -9 -7 -9 -16 -1 -28 3 -28 8 0 5 -13 11 -30 15 -16 3 -30 11 -30 18
0 15 45 38 73 38 10 0 16 3 13 8 -6 10 15 37 34 45 8 3 2 6 -15 6 -22 1 -26 4
-16 10 11 7 7 10 -15 14 l-29 4 33 2 c17 0 32 -2 32 -7z m448 1 c-64 -2 -172
-2 -240 0 -68 1 -15 3 117 3 132 0 187 -2 123 -3z m-45 -20 c-51 -2 -136 -2
-190 0 -54 1 -12 3 92 3 105 0 149 -2 98 -3z m-160 -20 c-155 -6 -106 -22 75
-26 l167 -3 -185 -1 c-102 -1 -179 1 -172 4 6 2 12 11 12 19 0 11 19 14 98 12
l97 -2 -92 -3z m140 -50 c-57 -2 -149 -2 -205 0 -57 1 -11 3 102 3 113 0 159
-2 103 -3z m-138 -23 c-200 -6 -200 -6 -60 -9 157 -3 161 -18 5 -22 -85 -3
-80 -4 55 -9 l150 -6 -139 -2 c-112 -2 -147 1 -178 15 -21 9 -38 23 -38 30 0
10 41 13 203 11 l202 -2 -200 -6z m-999 -71 c3 -6 1 -16 -5 -22 -6 -6 -11 -19
-11 -28 0 -12 -10 -19 -27 -22 -27 -4 -27 -4 3 -6 29 -1 50 -22 46 -43 -1 -5
1 -7 6 -7 20 3 32 -2 32 -16 0 -10 -10 -15 -32 -14 l-33 1 30 8 c25 6 26 8 7
9 -23 1 -33 7 -80 51 l-26 25 34 6 c32 6 33 6 6 8 -23 1 -27 4 -21 19 4 9 8
23 8 30 0 15 53 16 63 1z m782 4 c-10 -2 -26 -2 -35 0 -10 3 -2 5 17 5 19 0
27 -2 18 -5z m375 0 c-51 -2 -135 -2 -185 0 -51 1 -10 3 92 3 102 0 143 -2 93
-3z m-353 -21 c0 -16 -24 -32 -49 -33 -25 -1 -24 -2 4 -9 l30 -8 -32 -1 c-35
-1 -40 8 -21 39 12 19 68 29 68 12z m273 1 c-35 -2 -91 -2 -125 0 -35 2 -7 3
62 3 69 0 97 -1 63 -3z m-110 -30 c-18 -2 -48 -2 -65 0 -18 2 -4 4 32 4 36 0
50 -2 33 -4z m180 -20 c-51 -2 -135 -2 -185 0 -51 1 -10 3 92 3 102 0 143 -2
93 -3z m-347 -31 c10 -15 8 -18 -12 -20 -13 -1 -26 3 -29 8 -3 6 2 11 12 11
10 1 5 5 -12 9 l-30 8 30 1 c19 1 34 -6 41 -17z m252 11 c-32 -2 -84 -2 -115
0 -32 2 -6 3 57 3 63 0 89 -1 58 -3z m1573 -39 c6 -8 17 -14 24 -14 7 0 24
-23 38 -51 25 -48 26 -52 12 -86 -8 -19 -15 -43 -15 -52 0 -9 -14 -32 -32 -51
-30 -34 -34 -35 -103 -34 -76 0 -125 20 -125 50 0 8 -4 13 -9 10 -5 -3 -12 1
-15 10 -10 26 -7 124 4 124 6 0 10 6 10 14 0 25 67 88 101 95 44 9 96 2 110
-15z m-1785 -7 c4 -4 -7 -7 -25 -7 -18 0 -30 4 -27 8 6 10 42 9 52 -1z m142
-4 c-10 -2 -26 -2 -35 0 -10 3 -2 5 17 5 19 0 27 -2 18 -5z m-1410 -20 c-141
-2 -375 -2 -520 0 -145 1 -29 2 257 2 286 0 404 -1 263 -2z m1270 0 c-10 -2
-28 -2 -40 0 -13 2 -5 4 17 4 22 1 32 -1 23 -4z m140 0 c-10 -2 -26 -2 -35 0
-10 3 -2 5 17 5 19 0 27 -2 18 -5z m-1188 -20 c-8 -3 -19 -12 -23 -19 -4 -8
-18 -14 -30 -15 -21 0 -21 -1 -2 -9 12 -5 -201 -9 -500 -9 l-520 -1 30 29 30
30 515 0 c283 0 508 -3 500 -6z m206 -14 c-14 -11 -24 -25 -21 -30 4 -5 -6
-10 -22 -10 -26 -2 -25 -2 7 -9 l35 -7 -30 -2 c-39 -1 -58 15 -44 41 5 10 16
18 24 18 8 0 15 5 15 10 0 6 14 10 31 10 l32 0 -27 -21z m802 14 c-16 -2 -28
-9 -28 -14 0 -6 6 -7 13 -3 6 4 9 3 4 -1 -12 -13 -47 -16 -47 -4 0 5 4 8 9 5
5 -3 11 1 15 9 3 9 17 14 33 14 l28 -2 -27 -4z m107 -23 c3 -5 1 -10 -4 -10
-6 0 -11 5 -11 10 0 6 2 10 4 10 3 0 8 -4 11 -10z m-137 -27 c-10 -2 -26 -2
-35 0 -10 3 -2 5 17 5 19 0 27 -2 18 -5z m145 0 c-7 -2 -21 -2 -30 0 -10 3 -4
5 12 5 17 0 24 -2 18 -5z m-1405 -20 c-142 -2 -374 -2 -515 0 -142 1 -26 2
257 2 283 0 399 -1 258 -2z m320 0 c-10 -2 -26 -2 -35 0 -10 3 -2 5 17 5 19 0
27 -2 18 -5z m950 0 c-10 -2 -26 -2 -35 0 -10 3 -2 5 17 5 19 0 27 -2 18 -5z
m129 1 c-3 -3 -12 -4 -19 -1 -8 3 -5 6 6 6 11 1 17 -2 13 -5z m-1127 -24 c0
-13 -984 -12 -1015 0 -11 5 213 9 498 9 349 1 517 -2 517 -9z m80 2 c0 -5 10
-14 23 -20 21 -10 20 -11 -10 -11 -21 -1 -32 3 -30 12 1 6 -6 11 -15 9 -9 -1
-19 2 -23 8 -4 6 6 10 24 10 17 0 31 -4 31 -8z m146 -8 c-4 -11 -2 -15 7 -11
8 3 20 1 28 -4 10 -6 4 -9 -18 -9 -18 0 -33 4 -33 8 0 5 -10 14 -22 20 -22 10
-21 11 11 11 26 1 32 -2 27 -15z m792 9 c-10 -2 -26 -2 -35 0 -10 3 -2 5 17 5
19 0 27 -2 18 -5z m-978 -29 c0 -2 -231 -3 -512 -2 l-513 3 500 5 c468 5 525
4 525 -6z m-222 -21 c-141 -2 -375 -2 -520 0 -145 1 -29 2 257 2 286 0 404 -1
263 -2z m320 0 c-10 -2 -26 -2 -35 0 -10 3 -2 5 17 5 19 0 27 -2 18 -5z m150
0 c-10 -2 -28 -2 -40 0 -13 2 -5 4 17 4 22 1 32 -1 23 -4z m779 1 c-3 -3 -12
-4 -19 -1 -8 3 -5 6 6 6 11 1 17 -2 13 -5z m-1015 -23 c-8 -4 -13 -11 -13 -15
0 -3 -2 -13 -5 -21 -5 -13 -69 -15 -518 -13 l-511 3 508 2 c279 2 507 7 507
11 0 4 -110 6 -245 4 -165 -2 -245 1 -245 8 0 7 81 9 250 8 138 -2 250 0 250
4 0 4 -224 9 -497 11 l-498 2 515 2 c284 2 509 -1 502 -6z m63 -1 c-25 -6 -26
-8 -7 -9 31 -1 18 -21 -14 -21 -26 0 -27 1 -18 24 4 10 17 16 38 15 l31 -1
-30 -8z m175 6 c0 -2 -13 -6 -30 -8 -16 -3 -30 -1 -30 4 0 4 14 8 30 8 17 0
30 -2 30 -4z m-1245 -26 c3 -5 -1 -10 -10 -10 -9 0 -13 5 -10 10 3 6 8 10 10
10 2 0 7 -4 10 -10z m475 -1 c0 -5 -94 -8 -227 -7 -175 1 -202 3 -118 7 189
10 345 10 345 0z m750 2 c0 -4 -13 -8 -30 -9 -16 -1 -30 2 -30 6 0 5 14 9 30
10 17 0 30 -3 30 -7z m-172 -28 c-10 -2 -26 -2 -35 0 -10 3 -2 5 17 5 19 0 27
-2 18 -5z m150 0 c-10 -2 -26 -2 -35 0 -10 3 -2 5 17 5 19 0 27 -2 18 -5z
m809 1 c-3 -3 -12 -4 -19 -1 -8 3 -5 6 6 6 11 1 17 -2 13 -5z m-1289 -21
c-142 -2 -374 -2 -515 0 -142 1 -26 2 257 2 283 0 399 -1 258 -2z m320 0 c-10
-2 -26 -2 -35 0 -10 3 -2 5 17 5 19 0 27 -2 18 -5z m150 0 c-10 -2 -26 -2 -35
0 -10 3 -2 5 17 5 19 0 27 -2 18 -5z m-455 -20 c-139 -2 -367 -2 -505 0 -139
1 -26 2 252 2 278 0 391 -1 253 -2z m341 -1 c3 -5 -8 -6 -25 -4 -16 2 -29 6
-29 8 0 8 49 4 54 -4z m140 0 c3 -5 -8 -6 -25 -4 -16 2 -29 6 -29 8 0 8 49 4
54 -4z m56 -28 c0 -2 -7 -4 -15 -4 -8 0 -15 4 -15 10 0 5 7 7 15 4 8 -4 15 -8
15 -10z m-1142 -1 c-16 -2 -40 -2 -55 0 -16 2 -3 4 27 4 30 0 43 -2 28 -4z
m695 0 c-123 -2 -323 -2 -445 0 -123 1 -23 2 222 2 245 0 345 -1 223 -2z m304
1 c-3 -3 -12 -4 -19 -1 -8 3 -5 6 6 6 11 1 17 -2 13 -5z m-279 -21 c-142 -2
-374 -2 -515 0 -142 1 -26 2 257 2 283 0 399 -1 258 -2z m325 0 c-7 -2 -21 -2
-30 0 -10 3 -4 5 12 5 17 0 24 -2 18 -5z m140 0 c-7 -2 -21 -2 -30 0 -10 3 -4
5 12 5 17 0 24 -2 18 -5z m-445 -20 c-142 -2 -374 -2 -515 0 -142 1 -26 2 257
2 283 0 399 -1 258 -2z m320 0 c-10 -2 -26 -2 -35 0 -10 3 -2 5 17 5 19 0 27
-2 18 -5z m125 0 c-7 -2 -19 -2 -25 0 -7 3 -2 5 12 5 14 0 19 -2 13 -5z m-960
-20 c-29 -2 -77 -2 -105 0 -29 2 -6 3 52 3 58 0 81 -1 53 -3z m110 0 c-7 -2
-19 -2 -25 0 -7 3 -2 5 12 5 14 0 19 -2 13 -5z m395 0 c-71 -2 -185 -2 -255 0
-71 1 -13 3 127 3 140 0 198 -2 128 -3z m229 0 c-3 -3 -22 -5 -42 -5 -20 0
-39 2 -41 5 -3 3 15 5 41 5 26 0 44 -2 42 -5z m203 3 c0 -2 -7 -7 -16 -10 -8
-3 -12 -2 -9 4 6 10 25 14 25 6z m-1057 -33 c-7 -2 -19 -2 -25 0 -7 3 -2 5 12
5 14 0 19 -2 13 -5z m140 0 c-18 -2 -48 -2 -65 0 -18 2 -4 4 32 4 36 0 50 -2
33 -4z m515 0 c-86 -2 -230 -2 -320 0 -90 1 -19 3 157 3 176 0 249 -2 163 -3z
m-80 -20 c-142 -2 -374 -2 -515 0 -142 1 -26 2 257 2 283 0 399 -1 258 -2z
m329 1 c-3 -3 -12 -4 -19 -1 -8 3 -5 6 6 6 11 1 17 -2 13 -5z m136 -1 c-7 -2
-21 -2 -30 0 -10 3 -4 5 12 5 17 0 24 -2 18 -5z m-440 -20 c-128 -2 -338 -2
-465 0 -128 1 -24 2 232 2 256 0 360 -1 233 -2z m300 0 c-7 -2 -19 -2 -25 0
-7 3 -2 5 12 5 14 0 19 -2 13 -5z m124 1 c-3 -3 -12 -4 -19 -1 -8 3 -5 6 6 6
11 1 17 -2 13 -5z m-1024 -51 c-35 -2 -91 -2 -125 0 -35 2 -7 3 62 3 69 0 97
-1 63 -3z m210 0 c-24 -2 -62 -2 -85 0 -24 2 -5 4 42 4 47 0 66 -2 43 -4z
m110 0 c-7 -2 -19 -2 -25 0 -7 3 -2 5 12 5 14 0 19 -2 13 -5z m60 0 c-7 -2
-19 -2 -25 0 -7 3 -2 5 12 5 14 0 19 -2 13 -5z m154 0 c-20 -2 -52 -2 -70 0
-17 2 0 4 38 4 39 0 53 -2 32 -4z m76 0 c-7 -2 -19 -2 -25 0 -7 3 -2 5 12 5
14 0 19 -2 13 -5z m100 0 c-13 -2 -33 -2 -45 0 -13 2 -3 4 22 4 25 0 35 -2 23
-4z m-996 -19 c-3 -3 -12 -4 -19 -1 -8 3 -5 6 6 6 11 1 17 -2 13 -5z m1170 0
c-3 -3 -12 -4 -19 -1 -8 3 -5 6 6 6 11 1 17 -2 13 -5z m2668 -200 c63 -19 155
-97 155 -130 0 -11 5 -25 11 -31 17 -17 22 -112 10 -176 -13 -71 -56 -134
-124 -183 -65 -47 -99 -41 -120 19 -8 23 -12 51 -11 62 6 30 -4 61 -23 81 -13
13 -14 19 -5 22 6 2 12 11 12 20 0 14 -2 13 -14 -3 -7 -11 -13 -27 -14 -35 -2
-46 -10 -166 -11 -171 -1 -4 -12 -14 -25 -22 -22 -15 -27 -14 -83 14 -65 32
-127 101 -149 164 -14 42 -16 182 -3 191 5 3 9 16 9 30 0 17 16 41 52 75 28
27 56 49 63 49 6 0 28 8 48 18 50 24 156 27 222 6z m1360 -74 c3 -5 1 -10 -4
-10 -6 0 -11 5 -11 10 0 6 2 10 4 10 3 0 8 -4 11 -10z m-7348 -456 c-3 -3 -12
-4 -19 -1 -8 3 -5 6 6 6 11 1 17 -2 13 -5z m250 0 c-3 -3 -12 -4 -19 -1 -8 3
-5 6 6 6 11 1 17 -2 13 -5z m196 -11 c-7 -2 -21 -2 -30 0 -10 3 -4 5 12 5 17
0 24 -2 18 -5z m110 0 c-13 -2 -33 -2 -45 0 -13 2 -3 4 22 4 25 0 35 -2 23 -4z
m292 -3 c-3 -5 -10 -10 -16 -10 -5 0 -9 5 -9 10 0 6 7 10 16 10 8 0 12 -4 9
-10z m1605 -16 c0 -2 -17 -4 -37 -4 -24 0 -33 3 -25 9 12 7 62 4 62 -5z m40 0
c0 -2 -7 -4 -15 -4 -8 0 -15 4 -15 10 0 5 7 7 15 4 8 -4 15 -8 15 -10z m-342
-1 c-10 -2 -26 -2 -35 0 -10 3 -2 5 17 5 19 0 27 -2 18 -5z m1079 1 c-3 -3
-12 -4 -19 -1 -8 3 -5 6 6 6 11 1 17 -2 13 -5z m177 -5 c-3 -5 -16 -9 -30 -9
-33 0 -24 15 10 16 14 1 23 -2 20 -7z m896 -9 c12 -8 11 -10 -7 -10 -13 0 -23
5 -23 10 0 13 11 13 30 0z m60 6 c0 -11 -19 -15 -25 -6 -3 5 1 10 9 10 9 0 16
-2 16 -4z m-103 -12 c-3 -3 -12 -4 -19 -1 -8 3 -5 6 6 6 11 1 17 -2 13 -5z
m540 0 c-3 -3 -12 -4 -19 -1 -8 3 -5 6 6 6 11 1 17 -2 13 -5z"/>
<path d="M9260 8402 c0 -5 7 -9 15 -9 8 0 12 4 9 9 -3 4 -9 8 -15 8 -5 0 -9
-4 -9 -8z"/>
<path d="M9284 8167 c-3 -9 -11 -14 -17 -10 -7 4 -8 -9 -5 -38 3 -24 2 -57 -1
-74 -9 -42 5 -146 20 -156 28 -17 41 28 42 147 0 94 -2 118 -16 131 -15 15
-17 15 -23 0z"/>
<path d="M9662 8165 c-9 -11 -11 -38 -7 -99 3 -46 1 -96 -5 -110 -5 -14 -6
-26 -2 -26 4 0 12 -10 17 -22 14 -31 30 -32 43 -2 7 14 18 24 25 21 11 -3 13
-22 16 -159 1 -25 9 -46 23 -60 l21 -21 9 22 c11 32 16 200 6 238 -7 27 -13
32 -33 31 -23 -2 -29 -10 -26 -30 0 -5 -8 -8 -19 -8 -18 0 -20 7 -20 69 0 39
4 72 8 75 14 8 1 70 -17 83 -20 16 -23 15 -39 -2z"/>
<path d="M9856 8165 c-11 -8 -15 -15 -9 -15 6 0 9 -9 6 -20 -3 -11 -10 -17
-15 -14 -6 4 -7 0 -1 -12 5 -11 9 -56 9 -101 -1 -46 2 -83 6 -83 5 0 8 -6 8
-14 0 -7 9 -16 20 -19 15 -4 20 0 20 16 0 16 3 18 9 9 7 -11 9 -11 14 2 3 8 1
16 -4 18 -10 3 -13 102 -6 172 8 73 -13 94 -57 61z"/>
<path d="M9462 8141 c-7 -20 -7 -32 1 -40 7 -7 8 -11 0 -11 -6 0 -9 -33 -8
-92 3 -110 3 -113 12 -105 3 4 12 2 19 -4 21 -17 29 14 29 112 0 48 3 85 8 82
4 -2 7 0 7 6 0 5 -4 12 -10 16 -5 3 -7 12 -4 20 6 15 -17 45 -34 45 -6 0 -15
-13 -20 -29z"/>
<path d="M10101 8084 c0 -11 3 -14 6 -6 3 7 2 16 -1 19 -3 4 -6 -2 -5 -13z"/>
<path d="M9984 7983 c5 -9 0 -13 -17 -13 -19 0 -26 -6 -29 -28 -2 -15 -1 -38
2 -52 4 -14 3 -40 -1 -57 -4 -19 -3 -30 2 -27 5 3 8 -3 7 -13 -5 -63 19 -119
43 -96 18 18 19 271 0 286 -12 9 -13 9 -7 0z"/>
<path d="M9362 7965 c-12 -14 -11 -54 2 -106 5 -18 3 -31 -7 -41 -9 -8 -12
-20 -8 -27 4 -6 7 -22 6 -34 -2 -25 16 -47 38 -47 24 0 27 33 19 233 -2 28 -6
37 -19 37 -10 -1 -24 -7 -31 -15z"/>
<path d="M9551 7949 c-8 -23 -8 -44 1 -76 8 -32 8 -47 0 -52 -7 -4 -8 -12 -2
-21 5 -8 6 -27 3 -43 -7 -33 25 -71 48 -57 7 5 10 12 6 16 -4 4 -3 12 2 18 13
17 20 55 11 61 -4 2 -6 36 -5 74 0 38 -2 78 -7 90 -11 32 -44 26 -57 -10z"/>
<path d="M9267 7793 c-11 -21 -14 -208 -4 -246 6 -22 12 -27 36 -25 28 2 28 2
24 63 -8 143 -8 183 -1 179 4 -3 8 -1 8 5 0 20 -54 40 -63 24z"/>
<path d="M9460 7780 c-6 -11 -8 -25 -5 -30 3 -5 1 -11 -5 -15 -5 -3 -10 -13
-10 -21 0 -9 5 -12 11 -8 9 5 10 -12 4 -62 -9 -85 -9 -75 0 -101 5 -16 15 -23
31 -23 26 0 26 1 28 97 1 29 -3 53 -7 53 -5 0 -6 4 -2 9 13 22 12 78 -1 99
-18 27 -30 28 -44 2z"/>
<path d="M9659 7773 c-12 -31 -20 -153 -10 -153 3 0 6 -18 6 -40 1 -54 16 -68
49 -46 15 9 26 22 26 29 0 8 -4 7 -10 -3 -7 -11 -9 -2 -9 30 0 25 0 52 0 60
-1 8 0 35 2 60 3 44 -15 90 -34 90 -5 0 -14 -12 -20 -27z"/>
<path d="M9864 7791 c-22 -15 -34 -52 -24 -70 5 -10 9 -52 9 -92 -1 -108 -2
-105 29 -107 23 -2 28 2 30 24 1 14 6 33 12 44 7 13 6 20 -3 23 -17 5 -11 126
9 158 4 8 3 9 -4 5 -7 -4 -12 -3 -12 2 0 12 -35 22 -46 13z"/>
<path d="M9968 7612 c-20 -2 -28 -9 -28 -23 0 -10 -5 -19 -11 -19 -6 0 -7 -6
-2 -12 4 -7 6 -35 5 -63 -1 -37 1 -46 9 -35 8 11 9 6 5 -20 -11 -67 -11 -75 7
-92 38 -39 47 -24 49 75 1 50 3 110 4 132 2 51 -5 61 -38 57z"/>
<path d="M9363 7598 c-8 -13 -12 -250 -4 -243 2 2 10 -2 18 -10 36 -37 48 0
40 126 -3 53 -2 87 4 84 5 -4 9 3 9 15 0 13 -9 24 -26 30 -32 12 -31 13 -41
-2z"/>
<path d="M9558 7578 c3 -19 -1 -34 -9 -39 -8 -5 -9 -9 -4 -9 14 0 15 -150 1
-150 -8 0 -8 -2 0 -8 6 -4 15 -15 21 -26 10 -18 11 -18 30 1 18 18 20 32 18
130 -1 60 -5 115 -8 120 -4 6 -17 11 -30 11 -20 0 -23 -5 -19 -30z"/>
<path d="M9764 7595 c-19 -13 -21 -22 -18 -104 3 -89 3 -90 -19 -81 -12 4 -21
12 -20 17 1 5 -8 10 -20 10 -15 2 -18 0 -9 -6 11 -7 10 -9 -2 -14 -9 -4 -16
-14 -16 -24 0 -15 -2 -16 -10 -3 -8 11 -9 9 -5 -10 10 -51 12 -106 4 -135 -6
-19 -5 -31 1 -33 5 -2 10 -12 10 -22 0 -28 11 -50 25 -50 20 0 46 62 33 77 -6
8 -8 16 -5 20 4 3 2 13 -2 22 -9 16 5 120 17 133 4 4 13 4 20 -1 11 -6 10 -11
-3 -25 -15 -14 -15 -16 -1 -16 9 0 16 -4 16 -10 0 -17 30 -11 37 8 4 9 10 20
15 23 5 3 5 24 -1 47 -5 23 -5 42 -1 42 5 0 5 13 0 29 -9 31 -2 83 10 76 5 -3
6 4 3 15 -3 11 -9 17 -14 14 -5 -3 -9 0 -9 5 0 15 -12 14 -36 -4z"/>
<path d="M9891 7431 c-1 -8 -4 -11 -7 -8 -4 3 -14 2 -23 -2 -13 -8 -16 -28
-15 -123 1 -156 13 -185 56 -136 16 19 18 32 12 87 -3 36 -6 85 -5 108 1 37
-17 109 -18 74z"/>
<path d="M9274 7413 c-6 -10 -12 -47 -14 -83 -8 -154 2 -200 41 -179 11 5 17
13 15 17 -3 5 -1 14 5 22 7 13 9 13 9 0 0 -13 1 -13 11 0 8 12 10 10 5 -9 -3
-14 0 -31 6 -38 7 -9 7 -13 0 -13 -7 0 -8 -10 -2 -31 6 -19 6 -38 0 -48 -5
-10 -5 -23 1 -32 5 -7 9 -24 9 -36 0 -18 6 -23 24 -23 37 0 40 18 33 183 -2
37 0 67 5 67 5 0 3 7 -6 15 -16 16 -42 20 -48 6 -1 -4 -13 -11 -24 -15 -21 -6
-21 -4 -20 99 0 58 -2 105 -6 105 -3 0 -12 2 -20 5 -7 3 -18 -3 -24 -12z"/>
<path d="M9470 7421 c0 -5 -7 -17 -16 -25 -8 -9 -12 -16 -7 -16 4 0 8 -43 8
-96 0 -104 14 -158 39 -148 21 8 23 17 22 152 -1 97 -4 125 -16 132 -19 12
-30 12 -30 1z"/>
<path d="M9565 7222 c-5 -14 -7 -14 -15 -2 -13 20 -13 3 0 -20 9 -16 8 -18 -6
-13 -12 4 -15 3 -10 -6 13 -20 16 -91 6 -111 -7 -13 -7 -21 0 -25 5 -3 10 -19
10 -35 0 -23 6 -31 24 -36 17 -4 23 -11 20 -22 -2 -10 2 -4 9 12 8 16 16 25
19 20 3 -5 2 -2 -1 6 -3 8 -6 60 -7 115 -1 55 -3 107 -3 115 -1 21 -38 23 -46
2z"/>
<path d="M9758 7223 c-8 -10 -13 -29 -12 -43 4 -32 5 -75 3 -120 -1 -19 2 -43
6 -52 4 -10 5 -24 2 -32 -3 -8 -1 -17 6 -19 20 -7 37 4 37 24 0 13 5 17 18 12
15 -6 15 -5 3 11 -10 12 -15 48 -17 119 -1 56 -2 105 -3 110 -2 13 -28 7 -43
-10z"/>
<path d="M9949 7231 c10 -6 10 -10 1 -13 -11 -3 -13 -94 -5 -203 4 -51 4 -53
26 -58 14 -4 19 -2 16 8 -3 7 -1 17 5 23 11 11 13 225 3 242 -4 6 -18 10 -33
10 -19 0 -23 -3 -13 -9z"/>
<path d="M9270 7058 c0 -10 -4 -18 -9 -18 -19 0 -7 -228 15 -257 12 -17 14
-17 31 2 15 16 18 36 17 110 0 50 -4 98 -8 107 -4 9 -5 22 -1 28 3 5 -2 13
-12 17 -10 4 -21 11 -25 17 -5 7 -8 4 -8 -6z"/>
<path d="M9671 7051 c-23 -18 -23 -20 -18 -140 3 -68 8 -126 12 -129 3 -3 13
-2 23 4 18 12 38 74 25 83 -9 7 -11 73 -2 81 3 3 0 31 -5 62 l-11 57 -24 -18z"/>
<path d="M9455 7046 c-10 -33 -12 -56 -7 -56 4 0 7 -41 7 -90 -1 -73 3 -94 16
-106 14 -12 22 -13 38 -4 12 6 21 13 21 16 0 3 -4 3 -8 0 -5 -3 -8 49 -7 115
2 77 -2 122 -9 128 -15 12 -47 10 -51 -3z"/>
<path d="M9847 7008 c-10 -77 -1 -209 15 -225 13 -13 17 -12 32 2 9 9 16 24
17 33 0 14 2 13 9 -3 7 -16 9 -11 9 20 1 29 -2 36 -9 25 -11 -17 -11 -16 -16
23 -2 18 1 25 8 21 8 -5 8 -2 2 7 -5 8 -9 41 -9 74 0 57 -1 60 -26 63 -24 3
-27 0 -32 -40z"/>
<path d="M9911 7005 c1 -19 18 -51 18 -35 0 8 -4 22 -9 30 -5 8 -9 11 -9 5z"/>
<path d="M9561 6863 c-17 -19 -18 -212 -1 -253 10 -25 14 -27 31 -17 17 11 19
25 19 137 0 109 -2 127 -18 136 -13 9 -21 8 -31 -3z"/>
<path d="M9371 6854 c-12 -9 -19 -19 -16 -24 3 -5 1 -11 -4 -15 -6 -3 -8 -11
-6 -18 3 -7 7 -51 9 -99 2 -48 7 -92 11 -98 3 -5 17 -10 30 -10 24 0 24 1 19
78 -3 42 -6 88 -7 102 -2 14 1 35 5 48 12 35 -12 56 -41 36z"/>
<path d="M9759 6859 c-9 -5 -13 -32 -12 -93 1 -47 -3 -88 -8 -91 -5 -4 -9 -13
-9 -21 0 -8 5 -12 10 -9 8 5 13 -9 12 -35 0 -14 26 -27 39 -19 11 6 14 38 14
138 0 112 -2 131 -16 134 -9 3 -23 1 -30 -4z"/>
<path d="M9952 6858 c-13 -17 -21 -78 -10 -78 5 0 4 -10 -3 -21 -6 -12 -7 -19
-2 -16 5 3 9 -11 8 -32 0 -28 -4 -37 -14 -33 -11 4 -11 1 -2 -16 6 -11 11 -32
11 -45 0 -31 28 -43 45 -20 17 23 20 239 4 259 -14 17 -24 18 -37 2z"/>
<path d="M9725 6700 c-3 -5 -1 -10 4 -10 6 0 11 5 11 10 0 6 -2 10 -4 10 -3 0
-8 -4 -11 -10z"/>
<path d="M9269 6695 c-5 -19 -7 -25 -9 -27 -8 -8 -6 -198 3 -198 5 0 6 -7 3
-16 -14 -37 44 -69 71 -40 4 5 3 6 -4 2 -18 -10 -25 10 -8 24 24 20 32 -16 26
-110 -3 -52 4 -90 23 -108 26 -26 39 -1 40 76 1 41 5 65 9 59 5 -7 6 -3 1 8
-4 11 -9 44 -10 74 -2 29 -5 56 -8 58 -8 9 -46 -18 -46 -32 0 -8 -4 -15 -10
-15 -5 0 -10 5 -10 11 0 5 -4 7 -10 4 -6 -4 -10 26 -10 82 0 60 3 83 10 73 5
-8 10 -10 10 -4 0 6 -7 17 -15 24 -8 7 -15 18 -15 26 0 13 -39 40 -41 29z"/>
<path d="M9670 6678 c0 -5 -4 -6 -10 -3 -11 7 -12 -5 -12 -120 0 -42 -4 -73
-11 -77 -9 -6 -9 -8 1 -8 6 0 12 -9 12 -21 0 -11 5 -17 10 -14 6 3 10 -3 10
-14 0 -12 4 -21 9 -21 18 0 25 39 27 157 1 111 0 122 -17 126 -11 3 -19 1 -19
-5z"/>
<path d="M9858 6672 c-19 -21 -30 -89 -17 -98 9 -5 8 -67 -1 -99 -5 -19 22
-75 36 -75 8 0 14 5 14 11 0 6 6 9 14 6 14 -6 16 9 4 29 -4 6 -6 59 -3 118 3
94 2 107 -14 116 -14 7 -22 5 -33 -8z"/>
<path d="M9453 6665 c-37 -16 -40 -20 -17 -29 10 -4 13 -2 8 7 -5 9 -3 9 7 -1
10 -9 11 -17 3 -30 -6 -9 -9 -46 -7 -82 2 -36 4 -81 4 -100 1 -19 4 -29 6 -23
3 9 10 10 23 3 14 -8 20 -4 29 18 11 25 7 134 -5 154 -3 4 -2 14 3 21 12 18
11 61 -1 69 -14 10 -15 10 -53 -7z"/>
<path d="M9558 6472 c-11 -29 -14 -174 -3 -222 8 -39 31 -45 51 -15 12 19 14
28 5 38 -6 8 -8 17 -4 21 8 7 6 151 -2 177 -10 30 -35 31 -47 1z"/>
<path d="M9942 6492 c-7 -5 -13 -24 -12 -43 0 -19 1 -53 0 -77 0 -24 3 -48 7
-55 3 -6 6 -30 7 -53 0 -24 3 -41 7 -38 4 2 9 -1 11 -7 2 -5 11 -7 19 -4 19 7
30 135 20 225 -5 45 -10 55 -26 58 -11 1 -26 -2 -33 -6z"/>
<path d="M9764 6480 c-24 -10 -38 -37 -26 -54 4 -6 7 -53 6 -104 -1 -52 2 -89
6 -82 5 8 9 3 13 -12 6 -22 7 -22 24 -5 15 15 18 36 18 142 1 129 -1 132 -41
115z"/>
<path d="M9264 6302 c-4 -10 -9 -64 -10 -122 -3 -110 9 -162 36 -157 19 3 40
29 33 41 -8 12 -5 202 2 230 5 15 4 17 -3 7 -8 -10 -10 -11 -14 -1 -6 20 -36
20 -44 2z"/>
<path d="M9445 6315 c6 -3 10 -59 10 -136 0 -72 3 -136 7 -142 5 -8 15 -8 35
-1 20 7 28 17 30 37 1 15 -3 27 -9 27 -5 0 -8 7 -4 15 3 8 2 15 -2 15 -6 0 -7
57 -2 120 4 42 0 57 -12 57 -7 0 -24 3 -38 6 -14 4 -20 5 -15 2z"/>
<path d="M9848 6298 c-10 -12 -14 -26 -9 -32 4 -6 11 -19 14 -28 4 -13 2 -15
-10 -11 -12 5 -14 3 -7 -8 14 -24 16 -51 2 -43 -9 6 -9 3 0 -9 8 -9 11 -21 7
-27 -12 -20 -7 -89 8 -104 8 -8 17 -13 20 -10 3 3 18 8 35 10 27 4 29 3 25
-23 -3 -15 -4 -36 -4 -45 1 -10 1 -28 2 -40 2 -67 9 -84 34 -86 14 -1 25 4 26
11 7 82 7 231 0 250 -10 25 -41 33 -41 10 0 -8 -4 -11 -10 -8 -5 3 -10 -2 -10
-11 0 -10 -2 -15 -5 -12 -11 10 -16 54 -16 123 -1 84 -6 108 -24 101 -8 -3
-15 -1 -17 4 -2 5 -11 0 -20 -12z"/>
<path d="M9650 6293 c0 -14 -2 -15 -9 -4 -6 9 -11 10 -15 2 -4 -6 0 -18 8 -27
16 -15 18 -35 18 -161 0 -51 3 -62 19 -66 10 -3 25 3 33 12 13 15 14 27 6 72
-7 36 -7 66 0 89 12 42 12 63 0 35 -7 -15 -9 -10 -9 23 -1 38 -3 42 -26 42
-17 0 -25 -6 -25 -17z"/>
<path d="M9362 6121 c-18 -11 -24 -68 -10 -90 7 -11 8 -26 3 -37 -5 -11 -9
-21 -9 -24 -1 -3 -5 -10 -9 -17 -4 -6 -2 -13 3 -15 6 -2 12 -21 13 -42 3 -46
27 -68 48 -45 15 15 20 125 6 146 -4 6 -3 14 3 18 14 9 5 96 -12 106 -16 11
-20 11 -36 0z"/>
<path d="M9560 6115 c-7 -9 -13 -29 -12 -45 0 -16 -4 -32 -9 -36 -5 -3 -7 -9
-4 -13 2 -5 7 -44 10 -87 4 -44 11 -82 18 -86 20 -13 37 -9 37 8 0 8 4 13 9
10 8 -5 6 47 -4 96 -1 9 1 18 6 20 12 4 -14 141 -27 145 -6 2 -17 -3 -24 -12z"/>
<path d="M9759 6111 c-22 -17 -26 -27 -23 -58 2 -21 6 -74 9 -118 3 -43 8 -81
10 -83 8 -8 56 9 50 17 -2 5 2 12 10 15 9 3 17 0 20 -7 11 -37 13 -64 6 -75
-11 -18 7 -134 22 -144 6 -4 19 -8 27 -8 13 0 15 22 16 133 0 72 3 139 6 147
2 8 3 11 0 7 -2 -4 -10 -3 -17 3 -9 7 -19 3 -38 -16 -40 -40 -54 -27 -55 51
-1 37 3 76 9 86 7 14 6 19 -3 19 -9 0 -9 3 2 10 13 8 13 10 -2 10 -9 0 -18 7
-20 16 -3 14 -7 13 -29 -5z"/>
<path d="M9266 5943 c-17 -4 -18 -14 -14 -121 3 -65 10 -130 16 -145 10 -24
14 -26 33 -17 12 7 18 18 15 26 -3 9 -1 12 4 9 6 -3 10 -2 10 4 0 5 -5 13 -11
17 -8 4 -7 9 2 15 12 8 12 10 0 18 -8 5 -9 11 -3 15 7 4 8 16 1 34 -10 31 -8
84 5 93 8 7 -21 60 -33 58 -3 -1 -14 -3 -25 -6z"/>
<path d="M9440 5925 c-13 -14 -19 -25 -13 -25 6 0 14 6 16 13 3 6 6 -41 5
-106 0 -98 3 -122 17 -137 17 -19 41 -18 30 1 -4 5 4 9 17 9 18 0 23 6 24 25
2 20 -1 23 -11 15 -10 -8 -12 12 -12 98 0 60 -3 114 -7 120 -12 20 -41 14 -66
-13z"/>
<path d="M9666 5943 c-3 -4 -6 -16 -7 -27 0 -12 -3 -15 -6 -8 -8 20 -25 13
-18 -8 4 -11 8 -53 10 -93 6 -107 15 -147 31 -147 30 0 42 72 30 180 -2 14 -4
41 -4 61 -2 34 -21 56 -36 42z"/>
<path d="M9520 5900 c0 -5 5 -10 10 -10 6 0 10 5 10 10 0 6 -4 10 -10 10 -5 0
-10 -4 -10 -10z"/>
<path d="M9358 5752 c-9 -13 -13 -49 -12 -111 l2 -92 -25 16 c-29 19 -60 12
-69 -17 -8 -26 -7 -177 2 -223 5 -30 34 -59 34 -34 0 6 5 7 10 4 10 -6 12 3
13 67 0 25 4 35 11 31 8 -5 8 -3 0 8 -6 8 -9 30 -7 49 2 19 5 43 6 52 1 9 4
15 8 12 4 -2 10 4 15 14 6 13 9 10 13 -17 6 -37 18 -46 40 -32 10 6 13 38 13
127 0 151 -1 159 -9 151 -3 -4 -12 -2 -19 4 -9 7 -16 5 -26 -9z"/>
<path d="M9954 5756 c-20 -22 -33 -143 -20 -184 6 -17 3 -24 -11 -29 -10 -4
-21 -11 -26 -17 -4 -6 -6 0 -5 14 4 33 -37 42 -47 10 -3 -11 -11 -18 -16 -15
-5 4 -9 1 -9 -4 0 -6 6 -11 13 -11 8 0 8 -3 2 -8 -9 -6 -12 -27 -5 -34 1 -2 4
-38 6 -81 4 -85 19 -113 54 -102 11 3 20 15 20 25 0 10 5 22 11 26 12 7 10
-10 -7 -63 -3 -10 1 -8 10 7 l16 25 -6 -28 c-4 -16 -7 -46 -8 -68 0 -21 -4
-39 -9 -39 -4 0 -6 4 -3 9 8 12 -54 26 -63 15 -3 -5 -16 -10 -28 -12 -22 -3
-23 0 -24 65 -3 131 -2 128 -26 131 -19 3 -35 -19 -38 -50 0 -4 -5 -12 -11
-18 -8 -8 -13 -6 -17 9 -3 12 -2 21 1 21 9 0 9 52 1 65 -4 6 -5 42 -4 82 2 83
-4 102 -28 79 -8 -9 -20 -16 -25 -16 -10 0 -21 -89 -12 -95 3 -2 5 -27 4 -57
-3 -75 14 -112 52 -113 16 0 32 4 35 8 3 5 7 -33 7 -83 1 -50 4 -96 7 -101 15
-24 55 -2 59 33 1 3 5 10 9 15 5 4 8 -3 6 -17 -2 -14 2 -34 8 -45 13 -25 10
-68 -5 -73 -15 -5 -16 -38 -2 -47 12 -7 4 -25 -11 -25 -5 0 -9 16 -9 35 0 30
-3 35 -24 35 -14 0 -28 -4 -31 -10 -3 -5 -14 -10 -23 -10 -26 0 -30 116 -5
123 17 4 17 5 1 6 -12 1 -18 9 -18 26 0 17 -7 28 -22 34 -39 14 -47 4 -42 -55
3 -33 0 -54 -6 -54 -5 0 -10 -5 -10 -11 0 -5 5 -7 10 -4 6 3 10 -1 10 -9 0 -8
-5 -18 -11 -22 -8 -4 -7 -9 2 -15 10 -6 11 -9 2 -9 -22 0 -14 -50 12 -75 32
-33 41 -31 56 9 14 40 30 38 28 -2 -1 -15 1 -45 5 -67 3 -22 1 -47 -4 -55 -7
-11 -10 -11 -10 -2 0 7 -4 11 -10 7 -5 -3 -19 0 -31 7 -17 10 -23 10 -26 1 -7
-20 -42 -16 -43 5 -1 9 -3 46 -5 82 -2 36 -4 72 -4 81 -1 11 -9 14 -31 11 -23
-3 -32 -11 -36 -31 -3 -14 -7 -32 -10 -39 -2 -7 0 -11 4 -9 4 3 8 -36 10 -87
1 -68 6 -94 18 -102 22 -17 53 -6 47 17 -3 10 -3 26 1 35 5 14 7 14 22 0 12
-13 14 -31 10 -96 -4 -50 -2 -80 4 -80 6 0 10 -5 10 -11 0 -5 -5 -7 -11 -3 -8
4 -9 -1 -4 -17 9 -30 15 -37 40 -41 16 -2 21 4 25 32 4 23 10 34 20 32 10 -2
11 0 2 11 -7 8 -14 52 -16 98 -5 92 -8 91 45 17 l16 -23 22 35 c20 31 23 63
11 105 -1 6 -2 26 -1 46 1 28 6 38 21 42 15 4 20 0 20 -14 0 -13 7 -19 23 -19
26 0 62 32 50 44 -4 4 1 4 11 0 12 -5 14 -9 6 -14 -7 -4 -9 -24 -6 -53 6 -52
-12 -74 -44 -55 -12 8 -22 6 -38 -8 -23 -20 -31 -50 -9 -38 6 4 3 -3 -8 -16
-14 -16 -16 -22 -5 -18 12 4 15 -5 15 -53 0 -33 -3 -59 -6 -59 -6 0 19 -89 28
-99 1 -2 11 4 22 13 21 19 33 83 16 90 -6 3 -6 5 0 5 6 1 9 27 7 64 -3 58 -2
63 18 64 15 1 20 -2 16 -13 -3 -7 -1 -24 4 -36 5 -13 9 -18 9 -11 1 7 7 10 15
7 14 -5 44 52 32 63 -3 3 -1 12 5 20 9 9 8 13 0 13 -16 0 -13 42 5 69 12 17
13 26 5 34 -6 6 -11 28 -11 49 0 32 -4 39 -24 44 -29 7 -46 -1 -46 -22 0 -8
-4 -14 -10 -14 -5 0 -10 9 -10 19 0 11 -5 23 -10 26 -6 4 -8 11 -5 16 4 5 6
27 7 48 1 58 13 70 32 32 9 -17 23 -31 30 -31 17 0 39 60 35 92 -2 13 1 29 6
37 5 9 5 16 -1 18 -5 2 -9 21 -7 43 1 23 -3 40 -9 40 -7 0 -7 4 1 13 8 10 7
18 -2 29 -21 27 -46 29 -59 5 -11 -21 -12 -21 -20 13 -9 37 -1 140 10 140 4 0
13 -13 20 -30 17 -37 39 -39 52 -4 15 37 13 247 -2 262 -15 15 -20 15 -34 -2z"/>
<path d="M9554 5738 c-4 -13 -9 -54 -10 -93 -2 -38 -6 -82 -9 -96 -8 -31 29
-77 57 -71 16 3 17 18 15 140 -2 132 -3 137 -24 140 -15 2 -24 -4 -29 -20z"/>
<path d="M9750 5745 c-6 -8 -8 -20 -4 -26 4 -7 3 -9 -4 -5 -6 3 -13 2 -17 -4
-3 -5 -1 -10 5 -10 6 0 8 -4 5 -10 -3 -5 -1 -18 5 -29 6 -13 7 -22 0 -26 -5
-3 -7 -26 -4 -53 4 -26 7 -54 8 -62 1 -8 7 -24 14 -35 12 -20 12 -20 32 4 11
13 20 33 20 45 0 11 3 32 7 45 4 16 2 22 -4 18 -6 -4 -13 0 -17 8 -3 8 -1 17
4 20 11 7 8 104 -3 123 -11 16 -32 15 -47 -3z"/>
<path d="M10082 5670 c0 -14 2 -19 5 -12 2 6 2 18 0 25 -3 6 -5 1 -5 -13z"/>
<path d="M9467 5578 c-9 -5 -17 -18 -17 -28 0 -10 -8 -24 -17 -30 -17 -11 -17
-11 1 -6 19 6 19 8 3 -56 -2 -7 -2 -10 0 -5 3 4 9 5 14 1 5 -3 5 -12 0 -23 -8
-14 -8 -76 -1 -76 1 0 3 -10 4 -23 2 -12 8 -28 15 -35 10 -9 16 -7 31 11 32
39 39 27 39 -65 -1 -100 5 -129 30 -136 19 -5 46 27 36 43 -3 5 -1 11 5 15 6
4 7 11 4 17 -4 6 -8 50 -10 97 -3 122 -2 121 -19 121 -8 0 -15 -4 -15 -10 0
-5 -6 -10 -14 -10 -8 0 -17 -8 -19 -17 -4 -15 -5 -15 -6 2 -1 17 -3 18 -11 5
-7 -10 -9 18 -6 91 4 92 2 107 -13 116 -11 7 -23 8 -34 1z"/>
<path d="M9890 5586 c0 -2 8 -10 18 -17 15 -13 16 -12 3 4 -13 16 -21 21 -21
13z"/>
<path d="M9365 5390 c-4 -6 -11 -8 -16 -5 -5 4 -9 -3 -9 -15 0 -12 -4 -18 -10
-15 -5 3 -10 2 -10 -4 0 -5 5 -11 11 -13 11 -4 15 -94 4 -127 -6 -20 -8 -20
-35 -6 -28 14 -30 14 -45 -9 -11 -17 -15 -43 -14 -86 2 -44 -2 -64 -12 -71
-11 -7 -11 -9 3 -9 13 0 16 -7 11 -33 -4 -27 0 -39 21 -62 22 -23 27 -25 32
-11 3 9 9 14 13 12 3 -2 5 37 3 87 -3 112 4 157 23 157 8 0 16 -9 17 -20 0
-11 1 -26 2 -32 1 -7 -5 -12 -12 -10 -8 1 -11 -2 -8 -6 3 -5 17 -7 31 -5 13 3
22 9 19 14 -3 5 2 6 10 3 18 -7 32 37 21 63 -13 29 -15 84 -3 77 6 -4 6 1 -1
14 -14 26 -14 35 -1 27 7 -4 7 2 0 19 -6 17 -6 26 3 29 8 3 4 12 -10 26 -25
24 -29 25 -38 11z"/>
<path d="M9446 5200 c-10 -10 -15 -24 -11 -30 4 -6 7 -56 7 -111 1 -81 4 -105
19 -122 21 -26 31 -18 49 36 8 25 8 42 2 50 -5 7 -8 50 -7 97 3 82 -2 100 -30
99 -5 0 -18 -9 -29 -19z"/>
<path d="M9367 5027 c-15 -6 -25 -17 -23 -24 3 -7 -1 -10 -10 -6 -17 6 -17 5
1 -47 11 -32 12 -52 5 -87 -12 -52 5 -127 26 -119 8 3 16 0 20 -6 5 -7 10 -3
15 10 9 25 34 29 42 8 3 -8 2 -39 -2 -70 -5 -34 -4 -56 2 -56 5 0 6 -7 3 -16
-9 -23 11 -53 34 -51 11 1 20 5 20 9 0 4 7 8 16 8 11 0 13 -6 9 -20 -3 -10 -1
-29 5 -40 14 -27 4 -63 -10 -40 -8 12 -10 11 -10 -5 0 -14 -3 -16 -8 -7 -12
18 -71 12 -64 -6 3 -8 -1 -18 -9 -23 -10 -6 -11 -9 -1 -9 9 0 11 -17 8 -65 -2
-36 1 -68 6 -71 5 -3 6 -20 3 -37 -3 -18 -2 -37 2 -43 12 -17 50 -26 58 -14
10 16 22 12 28 -10 3 -11 0 -20 -5 -20 -6 0 -5 -6 2 -15 10 -12 10 -15 0 -15
-8 0 -10 -8 -6 -24 8 -32 -10 -43 -24 -16 -19 35 -53 22 -62 -23 -4 -21 -4
-46 1 -54 4 -9 5 -32 0 -52 -9 -42 -1 -123 15 -133 26 -18 46 -8 46 22 0 17 4
30 10 30 5 0 6 7 3 17 -5 12 -3 14 8 8 12 -8 12 -6 0 9 -32 38 -9 168 23 136
8 -8 7 -13 -3 -19 -11 -7 -11 -10 0 -17 25 -15 39 -13 54 9 16 22 21 87 7 87
-11 0 -3 80 10 107 l11 23 19 -30 c21 -35 29 -37 48 -10 14 19 47 29 36 11 -4
-5 -1 -11 5 -13 8 -3 8 -10 -2 -26 -12 -20 -12 -24 1 -32 10 -6 11 -10 3 -10
-8 0 -13 -14 -13 -37 0 -26 -3 -34 -11 -26 -6 6 -12 19 -13 29 -5 31 -45 27
-53 -5 -3 -14 -11 -29 -17 -33 -8 -6 -8 -10 0 -15 12 -10 14 -134 1 -126 -5 3
-4 -5 3 -17 10 -18 9 -24 -1 -31 -11 -7 -10 -9 5 -9 13 0 17 -5 13 -20 -4 -17
0 -20 24 -20 26 0 29 3 23 25 -4 15 -2 25 5 25 6 0 8 8 4 18 -5 15 -4 15 13
-2 14 -13 15 -20 6 -23 -6 -3 -9 -9 -6 -15 10 -15 13 -158 4 -158 -4 0 -10 14
-13 30 -6 28 -37 44 -37 19 0 -6 -7 -9 -15 -6 -10 5 -16 -4 -20 -31 -3 -20 -9
-56 -14 -79 -5 -28 -5 -40 2 -36 6 4 8 -2 5 -15 -7 -26 11 -102 28 -119 10
-10 18 -7 38 17 13 17 26 30 28 30 2 0 2 -16 0 -35 -2 -19 1 -42 8 -49 9 -12
7 -21 -7 -42 -14 -22 -19 -25 -21 -11 -5 24 -62 24 -62 0 0 -16 -2 -16 -11 -3
-9 12 -10 11 -6 -7 3 -13 1 -23 -4 -23 -16 0 -22 51 -16 141 3 54 2 87 -4 84
-5 -3 -6 1 -3 9 5 13 1 13 -25 3 -17 -6 -31 -17 -31 -24 0 -7 -5 -13 -11 -13
-8 0 -8 -4 -1 -13 8 -9 6 -16 -8 -24 -17 -11 -18 -10 -10 17 5 16 12 35 16 41
4 8 3 9 -4 5 -12 -7 -13 -3 -16 70 l-2 41 28 -15 c57 -28 91 0 82 71 -3 25 -2
28 5 12 6 -12 10 -14 10 -6 1 8 -5 22 -13 30 -7 9 -16 36 -20 61 -5 41 -5 43
9 26 13 -17 14 -15 9 20 -4 22 -15 47 -27 57 -30 26 -49 3 -50 -62 -1 -37 -4
-47 -13 -40 -8 7 -10 2 -6 -16 2 -14 7 -23 11 -21 3 2 6 -6 6 -19 0 -13 -3
-21 -7 -18 -5 2 -8 -4 -8 -13 0 -16 -1 -16 -12 -2 -7 8 -23 18 -36 21 -20 5
-22 3 -10 -11 10 -12 10 -14 1 -8 -7 4 -13 3 -13 -1 0 -5 -11 -9 -25 -9 -23 0
-24 2 -20 52 2 29 6 56 7 61 1 4 -1 27 -5 50 -6 38 -9 42 -37 41 l-30 -1 -2
-71 c-1 -39 -1 -90 0 -113 3 -48 -13 -66 -23 -25 -6 29 -10 30 -68 23 -5 -1
-5 -5 -2 -11 3 -5 2 -10 -3 -10 -4 0 -8 -43 -8 -95 1 -52 3 -95 6 -95 3 0 7
-12 8 -26 1 -14 5 -31 9 -39 12 -19 53 0 53 25 0 11 5 20 11 20 8 0 10 -29 6
-97 -5 -87 -3 -101 14 -122 16 -19 22 -21 34 -11 8 7 15 9 15 4 0 -4 5 -3 11
3 11 11 13 148 5 226 -2 18 1 27 10 27 8 0 13 -3 12 -7 -3 -13 13 -73 20 -74
4 0 15 -2 24 -4 9 -2 26 6 38 17 27 26 32 20 20 -22 -19 -68 3 -173 39 -183
21 -5 47 23 34 37 -3 3 -2 6 4 6 16 0 25 -31 13 -45 -8 -10 -6 -15 7 -18 17
-4 17 -5 0 -6 -10 0 -15 -5 -12 -11 3 -5 0 -19 -8 -30 -12 -17 -16 -18 -20 -6
-4 11 -15 13 -40 9 -34 -5 -35 -5 -39 36 -2 23 0 47 4 54 4 6 2 15 -5 20 -9 6
-9 10 0 13 17 7 0 58 -22 62 -29 6 -65 -44 -58 -80 4 -20 1 -33 -8 -39 -8 -5
-9 -9 -3 -9 7 0 9 -11 6 -25 -2 -15 0 -25 7 -25 7 0 10 -4 6 -10 -4 -6 -15 -6
-31 0 -37 15 -54 12 -54 -7 0 -15 -4 -13 -24 7 -18 19 -21 28 -12 39 8 10 8
15 0 18 -7 2 -8 22 -4 55 8 57 -3 79 -36 73 -10 -2 -22 -4 -25 -4 -13 -2 -31
-60 -23 -73 5 -7 10 -47 11 -88 5 -137 22 -171 59 -115 13 20 19 22 34 12 13
-7 15 -14 8 -18 -7 -4 -9 -21 -5 -43 3 -22 2 -34 -4 -31 -5 4 -9 1 -9 -5 0 -7
-12 -9 -35 -4 -29 5 -35 3 -35 -10 0 -10 -4 -15 -8 -12 -5 3 -7 -30 -6 -72 1
-42 3 -97 3 -122 2 -60 14 -79 41 -62 42 26 48 17 45 -60 -1 -49 2 -80 12 -95
10 -18 11 -23 1 -23 -20 0 14 -20 35 -20 9 0 17 7 17 15 0 8 5 15 11 15 7 0 9
10 5 25 -4 14 -2 25 3 25 14 0 21 -28 14 -60 -3 -17 0 -36 6 -44 8 -9 8 -21 2
-39 -25 -66 22 -141 61 -96 19 22 32 25 25 5 -3 -8 -3 -17 0 -20 9 -8 9 -96 1
-96 -5 0 -8 4 -8 9 0 13 -43 22 -51 10 -3 -6 -18 -12 -33 -13 l-27 -3 6 71 c8
85 8 76 5 101 l-1 20 -9 -20 c-8 -17 -9 -16 -9 9 -1 21 -5 27 -17 22 -9 -3
-22 -6 -30 -6 -7 0 -16 -11 -20 -25 -11 -43 -23 -17 -18 38 13 147 -1 197 -50
174 -22 -11 -23 -17 -24 -112 -1 -137 7 -179 36 -183 16 -3 25 4 33 25 10 26
12 27 19 8 12 -27 12 -85 1 -85 -5 0 -6 -15 -1 -34 5 -22 3 -39 -3 -45 -8 -8
-6 -11 6 -11 10 0 20 -7 23 -15 4 -8 17 -15 31 -15 13 0 22 4 19 9 -4 5 -3 17
0 26 6 16 8 16 18 -1 11 -20 15 -64 16 -152 0 -31 5 -50 10 -47 6 3 10 -1 10
-9 0 -21 14 -20 31 0 9 11 14 47 14 108 1 97 15 156 29 121 4 -12 1 -22 -9
-27 -17 -10 -20 -28 -4 -28 5 0 7 5 4 10 -10 17 17 11 30 -6 10 -14 14 -14 33
-3 21 13 21 20 18 126 -2 62 0 113 4 113 4 0 5 12 2 26 -2 14 -7 22 -11 17 -3
-5 -18 -8 -33 -8 -15 1 -25 -2 -22 -6 5 -9 -27 -21 -35 -14 -3 3 0 10 8 14 10
6 9 10 -4 15 -13 5 -15 15 -11 57 6 59 14 73 23 41 3 -12 9 -19 14 -16 5 3 9
0 9 -5 0 -18 37 -12 46 7 4 9 8 59 10 110 1 51 4 96 7 98 8 9 47 -20 47 -34 0
-9 6 -12 16 -8 9 3 19 6 24 6 5 0 13 12 18 28 l11 27 0 -25 c0 -14 1 -45 2
-70 1 -25 -2 -56 -6 -70 -5 -20 -4 -22 5 -10 9 12 10 8 8 -20 -3 -33 -1 -35
30 -36 27 -1 32 2 32 23 0 12 4 23 9 23 6 0 6 13 0 33 -13 43 -8 126 8 157
l14 25 -2 -25 c-1 -14 -1 -32 0 -41 1 -20 51 -35 61 -19 10 17 15 17 33 1 10
-7 17 -26 17 -42 0 -23 -3 -27 -17 -22 -15 6 -16 4 -5 -9 10 -12 10 -17 1 -20
-20 -7 10 -72 39 -86 14 -6 28 -9 31 -6 3 3 7 66 8 140 2 148 -3 159 -59 143
-16 -4 -26 -4 -23 1 3 5 1 11 -5 15 -10 6 -8 100 3 111 3 4 2 15 -4 26 -6 11
-9 29 -6 39 3 10 1 19 -4 19 -5 0 -9 -4 -9 -9 0 -5 -10 -13 -22 -17 -13 -4
-28 -14 -35 -23 -21 -27 -30 3 -26 94 1 46 -1 94 -6 107 -6 13 -10 16 -11 8 0
-13 -1 -13 -10 0 -7 12 -13 9 -33 -14 l-25 -28 6 27 c3 17 1 26 -5 22 -6 -4
-10 9 -11 30 -1 19 -4 43 -7 52 -3 10 1 25 8 36 13 17 15 16 25 -13 6 -17 17
-38 24 -45 10 -12 15 -11 30 7 15 18 19 19 28 6 5 -8 10 -33 10 -55 -1 -66 7
-126 18 -137 7 -7 18 -6 33 3 35 19 45 19 45 -2 0 -11 -4 -19 -9 -19 -7 0 -6
-17 9 -114 7 -50 33 -69 58 -43 16 16 22 61 17 132 -1 17 0 50 3 75 4 25 2 51
-3 59 -14 21 -62 16 -83 -9 l-18 -22 0 21 c0 12 4 20 9 17 5 -4 7 12 3 36 -9
66 -8 103 3 103 5 0 9 -6 7 -12 -2 -7 2 -13 8 -13 6 0 9 -4 5 -9 -3 -6 3 -15
13 -20 34 -18 53 7 53 69 0 146 -3 208 -11 219 -11 20 -43 9 -57 -19 -7 -14
-13 -20 -13 -15 0 6 -5 3 -10 -5 -5 -8 -10 -10 -10 -5 0 6 7 20 15 33 15 20
15 21 -1 15 -14 -5 -16 -3 -9 13 5 10 9 44 9 74 -1 30 1 46 4 35 9 -40 72 -69
72 -33 0 5 6 6 13 2 7 -5 6 0 -3 11 -8 10 -10 16 -5 13 6 -4 10 37 9 115 l0
122 -43 0 c-37 0 -45 4 -53 24 -6 18 -4 27 8 36 14 9 14 14 4 20 -9 5 -11 4
-6 -3 4 -7 2 -12 -3 -12 -14 0 -14 25 0 73 11 42 3 90 -12 66 -5 -8 -9 -10 -9
-5 0 5 -7 3 -15 -4 -8 -7 -15 -9 -15 -6 0 4 -6 1 -14 -7 -14 -14 -16 -81 -3
-94 4 -3 2 -14 -4 -24 -7 -14 -6 -19 2 -19 8 0 8 -4 1 -12 -10 -13 -12 -19
-12 -38 0 -5 -5 -10 -11 -10 -5 0 -7 4 -4 10 9 14 -44 25 -58 11 -13 -13 -41
-15 -32 -2 3 5 1 12 -5 16 -11 7 -13 85 -2 100 4 6 14 11 23 12 11 2 15 -5 13
-25 -2 -25 1 -28 22 -24 15 3 24 11 24 23 0 10 5 21 10 24 8 5 7 12 -2 23 -10
12 -10 14 0 8 9 -5 12 1 10 26 -2 18 -7 36 -12 40 -5 3 -4 19 3 36 7 17 10 35
7 41 -4 5 -1 13 5 17 7 4 9 3 6 -3 -3 -5 7 -20 23 -32 24 -17 34 -19 50 -11
11 6 20 21 21 33 0 21 1 21 8 2 5 -11 4 -22 -1 -24 -5 -1 -2 -8 8 -15 15 -11
15 -14 1 -28 -12 -12 -13 -18 -4 -28 9 -10 9 -11 -2 -5 -10 6 -12 2 -7 -14 16
-57 18 -66 7 -51 -9 13 -11 13 -11 -2 0 -10 5 -18 10 -18 6 0 10 -7 10 -15 0
-9 9 -15 25 -15 16 0 25 6 25 15 0 8 4 15 9 15 5 0 8 54 7 119 0 73 -5 119
-11 118 -5 -1 -9 3 -8 8 1 6 -9 12 -22 13 -16 1 -25 -5 -29 -21 l-7 -22 -9 22
c-5 13 -9 51 -8 85 1 87 -7 108 -42 108 -26 0 -28 -3 -32 -45 -2 -25 0 -55 4
-65 4 -11 3 -20 -2 -20 -6 0 -8 -12 -5 -27 2 -16 0 -35 -5 -43 -8 -13 -12 -12
-25 8 -17 24 -41 29 -47 10 -4 -12 -38 -21 -38 -9 0 4 6 13 13 20 10 10 9 12
-3 9 -10 -2 -16 9 -20 39 -3 23 -4 41 -1 41 22 -2 35 3 24 10 -6 4 -13 23 -15
41 -2 19 -9 37 -17 39 -8 3 -11 0 -8 -5 4 -5 -7 -7 -25 -5 -21 3 -29 1 -24 -7
4 -6 0 -11 -11 -11 -17 -1 -17 -2 -1 -14 14 -10 16 -24 12 -72 -3 -32 -8 -70
-10 -84 l-6 -25 -24 28 c-13 15 -24 24 -24 19 0 -5 -9 -12 -20 -15 -13 -3 -18
-10 -14 -21 3 -9 1 -22 -5 -30 -6 -7 -8 -16 -4 -19 3 -4 1 -7 -5 -7 -8 0 -10
17 -6 51 2 28 1 48 -4 45 -4 -2 -9 13 -10 34 -2 21 2 41 8 45 6 3 8 11 5 16
-13 19 13 8 27 -13 11 -17 20 -20 42 -14 18 4 26 12 22 21 -2 7 0 16 7 19 9 3
9 6 0 13 -14 10 -14 73 0 91 6 8 6 12 -2 12 -17 0 -13 28 7 39 13 8 14 13 5
19 -7 4 -14 20 -15 35 -2 21 -8 27 -25 27 -13 0 -23 6 -23 12 0 7 -7 2 -16
-10 -8 -12 -12 -26 -9 -32 3 -5 1 -18 -4 -27 -6 -10 -11 -16 -12 -13 -7 31
-14 187 -9 205 8 33 -1 45 -34 45 -21 0 -36 -6 -40 -15 -11 -31 -21 -13 -21
38 0 28 -2 66 -5 82 -4 21 -1 34 9 43 9 8 10 11 4 7 -8 -4 -13 0 -13 9 0 9 -5
16 -11 16 -5 0 -7 5 -4 10 3 6 5 10 3 9 -2 -1 -16 -6 -31 -12z m181 -595 c2
-7 -2 -10 -12 -6 -9 3 -16 11 -16 16 0 13 23 5 28 -10z m99 -104 c-3 -8 -6 -5
-6 6 -1 11 2 17 5 13 3 -3 4 -12 1 -19z m173 -448 c0 -5 -5 -10 -11 -10 -5 0
-7 5 -4 10 3 6 8 10 11 10 2 0 4 -4 4 -10z m15 -19 c-5 -24 -2 -29 17 -34 17
-5 28 0 40 16 10 12 18 18 18 12 0 -5 5 -3 11 5 9 12 9 11 3 -5 -4 -11 -7 -31
-6 -45 1 -14 -1 -35 -3 -47 -4 -19 -9 -20 -34 -13 -39 11 -53 -1 -57 -49 -2
-23 0 -40 4 -37 4 2 6 -13 4 -35 -2 -21 -8 -42 -13 -45 -5 -3 -9 -14 -9 -24 0
-10 -4 -21 -9 -24 -5 -3 -8 2 -7 12 1 12 -7 17 -24 18 -14 1 -32 4 -40 7 -8 3
-19 7 -25 9 -7 2 -7 20 0 55 9 49 11 51 29 37 20 -14 20 -14 0 -15 -15 -1 -14
-3 6 -9 38 -12 56 -11 58 3 7 47 8 93 4 101 -13 23 -8 63 11 99 25 44 31 47
22 8z m-305 -169 c0 -15 -2 -15 -10 -2 -13 20 -13 33 0 25 6 -3 10 -14 10 -23z
m-110 8 c0 -5 -5 -10 -11 -10 -5 0 -7 5 -4 10 3 6 8 10 11 10 2 0 4 -4 4 -10z
m507 -12 c-3 -8 -6 -5 -6 6 -1 11 2 17 5 13 3 -3 4 -12 1 -19z m-592 -7 c-8
-14 32 -33 55 -26 14 4 20 2 20 -9 0 -9 5 -16 10 -16 13 0 13 6 0 31 -7 13 -7
19 0 19 5 0 11 -6 11 -12 1 -7 3 -28 5 -45 2 -18 -1 -33 -6 -33 -5 0 -7 -7 -3
-16 5 -14 3 -15 -16 -4 -16 8 -31 9 -52 1 -23 -8 -29 -7 -29 5 0 7 -4 14 -10
14 -5 0 -10 23 -10 50 0 39 4 50 16 50 8 0 13 -4 9 -9z m388 -141 c-3 -11 -9
-18 -13 -15 -5 3 -6 14 -3 25 3 11 9 18 13 15 5 -3 6 -14 3 -25z m120 -66 l14
-27 22 22 c12 12 26 19 31 16 9 -6 7 -71 -3 -82 -4 -3 -2 -14 4 -24 7 -15 6
-17 -6 -13 -8 3 -13 9 -11 13 3 4 -4 12 -15 19 -16 10 -19 10 -19 -3 0 -9 -6
-12 -15 -9 -10 4 -15 0 -16 -12 -1 -17 -2 -17 -7 1 l-5 20 -7 -20 c-8 -20 -8
-20 -16 -1 -4 11 -3 21 2 23 10 3 10 58 -1 86 -12 29 32 21 48 -9z m-220 -284
c-3 -12 -8 -19 -11 -16 -5 6 5 36 12 36 2 0 2 -9 -1 -20z m-297 -37 c-11 -11
-17 4 -9 23 7 18 8 18 11 1 2 -10 1 -21 -2 -24z m108 5 c4 -20 2 -34 -4 -36
-21 -7 2 -22 35 -22 18 0 40 -3 49 -6 19 -7 22 -65 4 -61 -7 1 -12 -4 -10 -10
1 -7 -5 -13 -13 -13 -8 0 -15 4 -15 9 0 4 -11 6 -25 3 -14 -2 -25 -11 -25 -18
0 -8 -5 -14 -11 -14 -5 0 -8 4 -5 9 4 5 2 20 -3 34 -7 17 -6 28 2 37 9 10 9
11 -2 5 -11 -7 -13 -2 -8 25 4 18 7 45 7 61 0 39 16 37 24 -3z m296 -29 c0 -3
-7 -6 -15 -6 -17 0 -17 0 -9 22 5 13 8 14 15 3 5 -7 9 -16 9 -19z m-103 -2
c-7 -18 26 -38 43 -27 18 11 50 -6 50 -25 0 -30 -22 -52 -46 -47 -38 7 -54
-14 -54 -69 0 -27 5 -49 10 -49 6 0 10 -4 10 -10 0 -5 -5 -9 -11 -7 -6 1 -14
-4 -17 -12 -2 -8 0 -11 5 -8 6 4 9 -5 7 -23 -2 -16 1 -32 6 -35 11 -7 4 -25
-9 -25 -5 0 -14 14 -21 30 -14 35 -32 38 -62 10 -28 -26 -38 -25 -30 2 3 13 1
19 -5 15 -11 -7 -11 14 3 102 5 35 3 42 -7 36 -8 -5 -10 -4 -6 0 18 20 35 12
41 -20 6 -30 20 -43 52 -50 6 -2 9 7 6 21 -3 14 0 24 8 24 8 0 10 23 4 90 -6
81 -5 90 11 90 10 0 15 -5 12 -13z m300 -119 c-3 -8 -6 -5 -6 6 -1 11 2 17 5
13 3 -3 4 -12 1 -19z m-589 -18 c-3 -36 -14 -39 -20 -5 -4 20 0 28 20 34 1 1
1 -12 0 -29z m85 -18 c19 10 20 9 10 -4 -9 -10 -9 -18 -2 -25 7 -7 6 -25 -2
-58 -8 -34 -9 -49 -1 -54 14 -8 9 -44 -6 -49 -12 -4 -17 15 -14 50 1 12 -6 16
-30 15 -24 -2 -35 -10 -50 -37 l-20 -35 5 43 c3 23 1 42 -4 42 -5 0 -8 16 -6
35 1 23 6 34 15 30 6 -2 12 1 13 8 0 9 2 9 6 0 2 -7 16 -13 29 -13 20 0 24 5
25 33 0 17 3 26 6 20 3 -10 10 -10 26 -1z m400 1 c-15 -6 -17 -33 -3 -33 6 0
10 -4 10 -10 0 -5 -6 -9 -12 -7 -14 2 -14 0 -5 -50 4 -19 2 -33 -3 -33 -6 0
-10 5 -10 11 0 6 -5 7 -12 2 -7 -4 -21 -6 -30 -5 -12 2 -18 -3 -19 -15 0 -10
-3 -13 -5 -6 -3 7 -11 10 -19 7 -9 -4 -14 7 -17 35 -3 30 0 41 10 41 12 0 12
3 2 15 -9 10 -9 15 -1 15 6 0 11 5 11 11 0 6 -7 9 -15 5 -8 -3 -15 -1 -15 4 0
11 11 13 34 4 9 -3 16 -14 16 -24 0 -18 25 -30 48 -23 6 3 12 18 12 34 0 21 5
29 18 28 10 0 12 -3 5 -6z m101 -168 c3 -8 1 -15 -4 -15 -6 0 -10 7 -10 15 0
8 2 15 4 15 2 0 6 -7 10 -15z m-399 -92 c2 -32 1 -66 -2 -75 -4 -15 -7 -14
-27 8 -22 26 -23 26 -54 10 -17 -9 -33 -16 -37 -16 -3 0 -5 29 -5 65 0 51 3
65 15 65 8 0 15 -7 15 -16 0 -10 6 -14 15 -10 8 3 15 1 15 -4 0 -22 22 -8 32
21 15 44 30 23 33 -48z"/>
<path d="M9255 4833 c-12 -12 -16 -27 -12 -54 3 -21 1 -39 -4 -41 -6 -2 -5
-35 2 -83 14 -89 31 -115 62 -88 11 11 17 12 17 4 0 -7 5 -9 10 -6 6 4 10 -24
11 -74 2 -106 1 -102 22 -115 15 -9 21 -6 37 14 11 14 18 32 16 40 -12 44 -16
91 -9 87 5 -3 7 12 5 34 -2 21 -1 47 3 57 13 28 14 43 3 36 -5 -3 -15 2 -22
11 -15 21 -58 12 -50 -10 3 -7 0 -16 -7 -21 -8 -4 -10 -3 -5 4 4 7 1 12 -8 12
-19 0 -21 26 -3 33 10 4 10 6 0 6 -15 1 -19 111 -4 111 5 0 4 14 -2 30 -13 34
-37 39 -62 13z m85 -243 c0 -5 -2 -10 -4 -10 -3 0 -8 5 -11 10 -3 6 -1 10 4
10 6 0 11 -4 11 -10z"/>
<path d="M9720 4654 c0 -7 5 -14 12 -16 7 -3 9 -11 3 -24 -9 -21 -9 -64 1
-109 4 -23 3 -27 -5 -15 -15 19 -8 -51 8 -92 12 -32 18 -33 45 -13 20 15 21
20 15 146 -1 36 1 71 6 79 5 9 4 11 -4 6 -8 -6 -10 -1 -6 17 6 23 4 25 -34 29
-27 2 -41 0 -41 -8z"/>
<path d="M9940 4660 c-11 -7 -14 -35 -14 -136 1 -111 3 -129 19 -140 29 -21
58 10 52 56 -2 19 0 45 4 58 5 12 5 22 1 22 -4 0 -8 29 -9 65 -2 84 -13 100
-53 75z"/>
<path d="M9290 4490 c0 -7 -3 -10 -6 -7 -15 14 -42 -14 -46 -48 -2 -19 -1 -35
2 -35 9 0 10 -44 1 -50 -11 -6 7 -130 21 -147 7 -9 16 -10 28 -3 9 5 20 6 24
3 3 -3 6 1 6 10 0 37 18 23 21 -17 2 -24 1 -42 -4 -39 -7 4 1 -68 9 -76 2 -2
-2 -11 -9 -19 -10 -13 -9 -14 1 -8 11 7 12 4 3 -12 -14 -25 -14 -43 -1 -22 5
8 10 10 10 5 0 -20 42 -15 47 6 3 10 9 19 14 19 5 0 5 7 2 17 -5 12 -3 14 7 8
10 -6 12 -4 7 9 -4 10 -7 21 -7 24 0 4 -5 0 -10 -8 -6 -9 -10 -10 -10 -3 0 6
6 18 14 25 10 11 11 18 2 30 -7 9 -11 42 -9 77 2 52 0 62 -18 71 -16 9 -26 8
-44 -4 -14 -9 -26 -16 -27 -16 -2 0 -4 23 -5 50 -2 33 1 50 9 50 9 0 9 3 0 12
-7 7 -12 26 -11 43 0 26 2 27 9 10 8 -18 9 -18 9 -2 1 10 -8 27 -19 39 -13 14
-20 17 -20 8z"/>
<path d="M9270 4122 c-25 -8 -27 -20 -29 -147 -1 -140 6 -157 57 -134 27 12
28 14 21 63 -10 71 -11 160 -1 172 12 13 -29 52 -48 46z"/>
<path d="M9639 2655 c-1 -3 -2 -11 -3 -17 -1 -7 -7 -12 -13 -11 -7 1 -9 -16
-6 -50 3 -29 6 -81 6 -117 2 -75 19 -96 68 -86 l29 6 0 -69 c0 -46 -4 -71 -12
-75 -7 -4 -3 -4 8 -2 15 2 21 -1 20 -13 -1 -10 8 -17 24 -19 28 -3 26 -14 31
168 1 52 4 87 6 77 3 -9 8 -15 13 -12 5 3 11 -8 15 -24 8 -37 48 -57 70 -35 8
9 15 12 16 7 5 -91 4 -101 -8 -91 -7 5 -20 8 -28 4 -10 -3 -15 1 -16 12 0 14
-2 14 -9 -3 -6 -13 -9 -15 -9 -5 -1 13 -3 13 -10 1 -7 -11 -10 -10 -14 5 -4
17 -5 16 -6 -3 0 -12 5 -24 12 -26 10 -4 10 -6 0 -6 -15 -1 -18 -31 -3 -31 6
0 10 -7 10 -15 0 -8 -5 -15 -11 -15 -8 0 -8 -5 1 -15 10 -12 9 -15 -6 -15 -11
0 -15 -4 -9 -8 6 -4 10 -23 9 -42 0 -19 3 -43 8 -52 5 -10 4 -19 -2 -23 -5 -3
0 -17 12 -30 20 -23 23 -24 40 -8 10 9 17 21 15 27 -3 6 0 19 5 30 6 10 6 16
1 13 -10 -7 -11 108 -1 118 4 4 4 15 -1 24 -5 9 -5 25 0 36 5 14 8 16 9 5 6
-45 21 -80 32 -74 6 4 14 1 18 -6 10 -17 30 -4 30 21 0 10 4 19 9 19 4 0 4 23
0 52 -6 35 -5 56 3 66 7 8 8 16 2 20 -5 4 -11 21 -12 37 -1 23 1 26 8 15 5 -8
10 -10 10 -4 0 6 -3 14 -7 18 -4 4 -8 14 -8 23 0 9 -7 20 -16 26 -21 13 -55
-17 -61 -53 -2 -14 -7 5 -12 42 -4 40 -4 74 2 84 6 11 6 30 0 51 -5 18 -6 38
-3 43 7 11 -18 13 -53 4 -16 -5 -21 -12 -17 -24 3 -11 -1 -20 -10 -24 -8 -3
-15 -12 -15 -20 0 -9 6 -13 13 -11 9 4 11 -9 9 -50 l-4 -55 -43 6 c-38 5 -44
3 -50 -15 -9 -30 -29 -26 -21 4 4 17 2 25 -6 25 -9 0 -8 3 2 10 11 7 11 10 2
10 -10 0 -12 14 -8 59 3 32 9 66 12 75 5 13 -1 16 -30 16 -20 0 -37 -2 -37 -5z
m80 -251 c-14 -18 -24 -11 -15 11 3 9 11 13 16 10 8 -5 7 -11 -1 -21z"/>
<path d="M9286 2312 c-4 -7 -19 -12 -33 -12 -25 0 -25 -1 -20 -60 3 -41 1 -60
-7 -60 -6 0 -5 -4 3 -9 10 -6 11 -21 6 -59 -5 -37 -3 -57 8 -71 7 -12 17 -18
20 -14 4 3 7 0 7 -8 0 -8 7 -4 16 10 12 17 17 50 18 134 2 116 -4 171 -18 149z"/>
<path d="M9643 2287 c-20 -9 -22 -16 -20 -78 1 -38 4 -69 8 -69 3 0 3 -21 -1
-47 -7 -41 -5 -50 13 -66 20 -17 22 -17 34 -1 13 18 18 88 14 177 -2 29 1 47
8 47 6 0 11 7 11 16 0 8 -4 12 -10 9 -5 -3 -10 -2 -10 3 0 16 -23 20 -47 9z"/>
<path d="M10015 1919 c-4 -6 -5 -12 -2 -15 2 -3 7 2 10 11 7 17 1 20 -8 4z"/>
<path d="M2155 7919 c-4 -6 -5 -12 -2 -15 2 -3 7 2 10 11 7 17 1 20 -8 4z"/>
<path d="M8071 7864 c0 -11 3 -14 6 -6 3 7 2 16 -1 19 -3 4 -6 -2 -5 -13z"/>
<path d="M6320 7850 c0 -5 5 -10 10 -10 6 0 10 5 10 10 0 6 -4 10 -10 10 -5 0
-10 -4 -10 -10z"/>
<path d="M6626 7826 c3 -9 2 -16 -4 -16 -6 0 -12 5 -14 12 -2 6 -9 8 -16 4 -8
-5 -5 -13 9 -27 11 -11 22 -19 24 -17 10 12 14 47 6 53 -7 3 -8 0 -5 -9z"/>
<path d="M6660 7820 c0 -5 5 -10 10 -10 6 0 10 5 10 10 0 6 -4 10 -10 10 -5 0
-10 -4 -10 -10z"/>
<path d="M6790 7790 c0 -5 5 -10 10 -10 6 0 10 5 10 10 0 6 -4 10 -10 10 -5 0
-10 -4 -10 -10z"/>
<path d="M6480 7751 c0 -25 6 -27 13 -6 4 8 2 17 -3 20 -6 4 -10 -3 -10 -14z"/>
<path d="M6730 7760 c0 -5 5 -10 10 -10 6 0 10 5 10 10 0 6 -4 10 -10 10 -5 0
-10 -4 -10 -10z"/>
<path d="M1582 7740 c-8 -13 -8 -20 -2 -20 6 0 13 7 17 15 9 24 -1 27 -15 5z"/>
<path d="M7010 7730 c0 -5 5 -10 10 -10 6 0 10 5 10 10 0 6 -4 10 -10 10 -5 0
-10 -4 -10 -10z"/>
<path d="M6450 7720 c0 -5 5 -10 10 -10 6 0 10 5 10 10 0 6 -4 10 -10 10 -5 0
-10 -4 -10 -10z"/>
<path d="M7340 7681 c0 -5 5 -13 10 -16 6 -3 10 -2 10 4 0 5 -4 13 -10 16 -5
3 -10 2 -10 -4z"/>
<path d="M1503 7673 c-15 -5 -17 -23 -4 -23 5 0 11 7 15 15 3 8 4 15 3 14 -1
0 -8 -3 -14 -6z"/>
<path d="M7380 7661 c0 -14 5 -19 15 -14 17 6 15 25 -3 31 -7 2 -12 -5 -12
-17z"/>
<path d="M5135 7770 c-3 -6 1 -13 10 -16 21 -9 26 -2 10 13 -9 8 -16 9 -20 3z"/>
<path d="M6068 7063 c7 -3 16 -2 19 1 4 3 -2 6 -13 5 -11 0 -14 -3 -6 -6z"/>
<path d="M6048 6903 c6 -2 18 -2 25 0 6 3 1 5 -13 5 -14 0 -19 -2 -12 -5z"/>
<path d="M5908 6763 c7 -3 16 -2 19 1 4 3 -2 6 -13 5 -11 0 -14 -3 -6 -6z"/>
<path d="M5778 5513 c7 -3 16 -2 19 1 4 3 -2 6 -13 5 -11 0 -14 -3 -6 -6z"/>
<path d="M5698 4873 c7 -3 16 -2 19 1 4 3 -2 6 -13 5 -11 0 -14 -3 -6 -6z"/>
<path d="M6990 6721 c0 -6 9 -9 20 -8 11 1 20 5 20 9 0 4 -9 8 -20 8 -11 0
-20 -4 -20 -9z"/>
<path d="M6918 6653 c7 -3 16 -2 19 1 4 3 -2 6 -13 5 -11 0 -14 -3 -6 -6z"/>
<path d="M6918 6173 c6 -2 18 -2 25 0 6 3 1 5 -13 5 -14 0 -19 -2 -12 -5z"/>
<path d="M6908 6083 c7 -3 16 -2 19 1 4 3 -2 6 -13 5 -11 0 -14 -3 -6 -6z"/>
<path d="M7230 6309 c0 -5 5 -7 10 -4 6 3 10 8 10 11 0 2 -4 4 -10 4 -5 0 -10
-5 -10 -11z"/>
<path d="M7118 6243 c7 -3 16 -2 19 1 4 3 -2 6 -13 5 -11 0 -14 -3 -6 -6z"/>
<path d="M7078 6213 c7 -3 16 -2 19 1 4 3 -2 6 -13 5 -11 0 -14 -3 -6 -6z"/>
<path d="M6913 5783 c9 -2 23 -2 30 0 6 3 -1 5 -18 5 -16 0 -22 -2 -12 -5z"/>
<path d="M7068 5713 c6 -2 18 -2 25 0 6 3 1 5 -13 5 -14 0 -19 -2 -12 -5z"/>
<path d="M7078 5423 c6 -2 18 -2 25 0 6 3 1 5 -13 5 -14 0 -19 -2 -12 -5z"/>
<path d="M6738 5263 c6 -2 18 -2 25 0 6 3 1 5 -13 5 -14 0 -19 -2 -12 -5z"/>
<path d="M6828 5263 c23 -2 61 -2 85 0 23 2 4 4 -43 4 -47 0 -66 -2 -42 -4z"/>
<path d="M6993 5263 c9 -2 23 -2 30 0 6 3 -1 5 -18 5 -16 0 -22 -2 -12 -5z"/>
<path d="M6743 4783 c9 -2 25 -2 35 0 9 3 1 5 -18 5 -19 0 -27 -2 -17 -5z"/>
<path d="M6488 4873 c7 -3 16 -2 19 1 4 3 -2 6 -13 5 -11 0 -14 -3 -6 -6z"/>
<path d="M5538 4873 c6 -2 18 -2 25 0 6 3 1 5 -13 5 -14 0 -19 -2 -12 -5z"/>
<path d="M5928 3783 c7 -3 16 -2 19 1 4 3 -2 6 -13 5 -11 0 -14 -3 -6 -6z"/>
<path d="M5988 3643 c7 -3 16 -2 19 1 4 3 -2 6 -13 5 -11 0 -14 -3 -6 -6z"/>
<path d="M5968 3623 c7 -3 16 -2 19 1 4 3 -2 6 -13 5 -11 0 -14 -3 -6 -6z"/>
<path d="M7068 4483 c6 -2 18 -2 25 0 6 3 1 5 -13 5 -14 0 -19 -2 -12 -5z"/>
<path d="M8801 4244 c0 -11 3 -14 6 -6 3 7 2 16 -1 19 -3 4 -6 -2 -5 -13z"/>
<path d="M6888 4353 c7 -3 16 -2 19 1 4 3 -2 6 -13 5 -11 0 -14 -3 -6 -6z"/>
<path d="M6928 4283 c6 -2 18 -2 25 0 6 3 1 5 -13 5 -14 0 -19 -2 -12 -5z"/>
<path d="M6778 3853 c7 -3 16 -2 19 1 4 3 -2 6 -13 5 -11 0 -14 -3 -6 -6z"/>
<path d="M4943 3603 c9 -2 23 -2 30 0 6 3 -1 5 -18 5 -16 0 -22 -2 -12 -5z"/>
<path d="M5148 3603 c7 -3 16 -2 19 1 4 3 -2 6 -13 5 -11 0 -14 -3 -6 -6z"/>
<path d="M5278 3603 c6 -2 18 -2 25 0 6 3 1 5 -13 5 -14 0 -19 -2 -12 -5z"/>
<path d="M5108 3573 c133 -2 351 -2 485 0 133 1 24 2 -243 2 -267 0 -376 -1
-242 -2z"/>
<path d="M6058 3573 c7 -3 16 -2 19 1 4 3 -2 6 -13 5 -11 0 -14 -3 -6 -6z"/>
</g>
</svg>
